<?xml version="1.0" encoding="UTF-8" standalone="no"?>
<!DOCTYPE svg PUBLIC "-//W3C//DTD SVG 1.1//EN" "http://www.w3.org/Graphics/SVG/1.1/DTD/svg11.dtd">
<svg width="100%" height="100%" viewBox="0 0 800 800" version="1.1" xmlns="http://www.w3.org/2000/svg" xmlns:xlink="http://www.w3.org/1999/xlink" xml:space="preserve" xmlns:serif="http://www.serif.com/" style="fill-rule:evenodd;clip-rule:evenodd;stroke-miterlimit:22.9256;">
    <g transform="matrix(20.9607,0,0,20.9607,28.6962,-2.7791)">
        <g id="_1028542360" transform="matrix(0.0535574,0,0,0.0535574,-137.741,0.36413)">
            <path d="M2772.18,113.534L3033.83,113.534C3074.6,113.534 3107.96,146.895 3107.96,187.668L3107.96,281.424L2698.05,281.424L2698.05,187.668C2698.05,146.895 2731.41,113.534 2772.18,113.534Z" style="fill:rgb(254,254,254);stroke:rgb(254,254,254);stroke-width:32.93px;"/>
            <g>
                <path d="M3149.39,379.403C3150.48,407.365 3159.75,500.373 3060.78,526.48L3061.9,620.337C3052.8,680.282 2938.47,682.202 2906.1,626.549C2872.08,676.598 2769.78,676.851 2751.2,630.693L2750.99,527.992C2666.58,500.769 2657.52,428.199 2659.22,379.947C2659.22,155.02 3149.39,167.258 3149.39,379.403Z" style="fill:rgb(254,254,254);"/>
                <path id="_1" serif:id="1" d="M3077.22,526.285L3044.34,526.678L3056.59,510.561L3064.66,508.188L3072.07,505.519L3078.88,502.578L3085.11,499.394L3090.81,495.993L3096,492.393L3100.72,488.611L3105.02,484.665L3108.91,480.564L3112.43,476.319L3115.61,471.939L3118.46,467.435L3121.01,462.82L3123.27,458.108L3125.27,453.311L3127,448.451L3128.5,443.543L3129.77,438.612L3130.83,433.681L3131.69,428.77L3132.37,423.906L3132.89,419.113L3133.26,414.414L3133.49,409.836L3133.62,405.402L3133.66,401.134L3133.62,397.053L3133.52,393.181L3133.38,389.534L3133.23,386.125L3133.09,382.959L3132.96,380.045L3165.81,378.757L3165.93,381.457L3166.08,384.62L3166.23,388.206L3166.38,392.172L3166.49,396.482L3166.53,401.103L3166.49,406.011L3166.34,411.174L3166.06,416.569L3165.62,422.172L3164.99,427.96L3164.16,433.906L3163.09,439.99L3161.76,446.185L3160.14,452.467L3158.2,458.813L3155.92,465.193L3153.27,471.576L3150.21,477.936L3146.72,484.238L3142.78,490.45L3138.37,496.531L3133.46,502.446L3128.04,508.157L3122.09,513.626L3115.6,518.816L3108.56,523.69L3100.98,528.221L3092.83,532.379L3084.12,536.14L3074.83,539.485L3064.96,542.389L3077.21,526.271L3077.22,526.285ZM3044.34,526.678L3044.18,513.834L3056.59,510.564L3044.34,526.681L3044.34,526.678ZM3045.46,620.535L3044.34,526.678L3077.22,526.285L3078.34,620.142L3078.15,622.811L3045.46,620.532L3045.46,620.535ZM3078.34,620.142L3078.35,621.487L3078.15,622.814L3078.34,620.146L3078.34,620.142ZM2919.69,635.816L2892.51,617.288L2920.31,618.267L2922.74,622.011L2925.53,625.547L2928.68,628.888L2932.19,632.031L2936.03,634.965L2940.2,637.681L2944.66,640.162L2949.38,642.397L2954.33,644.374L2959.48,646.081L2964.78,647.513L2970.2,648.659L2975.69,649.52L2981.22,650.088L2986.75,650.364L2992.24,650.347L2997.64,650.038L3002.91,649.443L3008.01,648.569L3012.9,647.426L3017.55,646.024L3021.9,644.377L3025.94,642.508L3029.62,640.434L3032.93,638.182L3035.86,635.772L3038.39,633.221L3040.55,630.535L3042.34,627.702L3043.79,624.687L3044.89,621.436L3045.65,617.87L3078.16,622.818L3076.6,630.149L3074.23,637.12L3071.11,643.648L3067.3,649.675L3062.9,655.17L3057.98,660.121L3052.64,664.535L3046.92,668.427L3040.9,671.822L3034.61,674.74L3028.1,677.204L3021.39,679.23L3014.51,680.837L3007.51,682.037L3000.41,682.84L2993.22,683.25L2985.99,683.274L2978.73,682.914L2971.48,682.172L2964.26,681.042L2957.1,679.523L2950.03,677.614L2943.07,675.304L2936.27,672.588L2929.65,669.452L2923.25,665.886L2917.1,661.879L2911.26,657.416L2905.76,652.485L2900.66,647.076L2896.02,641.187L2891.91,634.834L2919.7,635.813L2919.69,635.816ZM2892.51,617.288L2907.18,595.702L2920.31,618.267L2892.51,617.288ZM2734.76,630.73L2767.64,630.663L2766.44,624.539L2767.6,626.986L2769.06,629.315L2770.84,631.571L2772.98,633.759L2775.48,635.87L2778.35,637.883L2781.58,639.776L2785.15,641.523L2789.05,643.103L2793.23,644.498L2797.67,645.688L2802.33,646.663L2807.19,647.412L2812.2,647.927L2817.35,648.202L2822.58,648.236L2827.86,648.024L2833.17,647.564L2838.46,646.854L2843.71,645.9L2848.88,644.703L2853.95,643.265L2858.87,641.591L2863.63,639.688L2868.18,637.564L2872.51,635.228L2876.58,632.69L2880.38,629.961L2883.89,627.05L2887.08,623.964L2889.95,620.71L2892.51,617.282L2919.69,635.809L2915.47,641.473L2910.83,646.73L2905.82,651.574L2900.49,656.011L2894.87,660.051L2889.01,663.705L2882.93,666.985L2876.68,669.906L2870.26,672.474L2863.72,674.696L2857.08,676.582L2850.35,678.138L2843.57,679.372L2836.76,680.282L2829.94,680.874L2823.14,681.15L2816.36,681.106L2809.65,680.743L2803.01,680.061L2796.47,679.052L2790.05,677.711L2783.78,676.027L2777.67,673.99L2771.75,671.583L2766.05,668.79L2760.6,665.59L2755.43,661.96L2750.6,657.876L2746.16,653.322L2742.18,648.286L2738.74,642.781L2735.94,636.848L2734.74,630.724L2734.76,630.73ZM2735.95,636.855L2734.76,633.907L2734.76,630.73L2735.95,636.855ZM2767.42,527.962L2767.64,630.663L2734.76,630.73L2734.55,528.029L2756.03,512.325L2767.42,527.962ZM2756.03,512.325L2767.4,515.996L2767.42,527.962L2756.03,512.325ZM2642.77,379.951L2675.65,379.951L2675.64,380.529L2675.52,384.855L2675.47,389.292L2675.51,393.819L2675.63,398.424L2675.86,403.093L2676.2,407.813L2676.66,412.572L2677.25,417.355L2677.99,422.148L2678.87,426.942L2679.91,431.721L2681.11,436.474L2682.49,441.19L2684.05,445.856L2685.8,450.461L2687.76,454.998L2689.92,459.455L2692.3,463.828L2694.9,468.107L2697.75,472.286L2700.84,476.359L2704.2,480.322L2707.83,484.171L2711.76,487.895L2716,491.495L2720.57,494.957L2725.49,498.275L2730.78,501.441L2736.46,504.443L2742.55,507.267L2749.06,509.898L2756.02,512.325L2745.94,543.666L2737.51,540.728L2729.5,537.488L2721.89,533.959L2714.69,530.154L2707.88,526.083L2701.48,521.764L2695.46,517.209L2689.83,512.436L2684.59,507.465L2679.72,502.312L2675.21,496.998L2671.07,491.542L2667.27,485.969L2663.81,480.295L2660.68,474.541L2657.86,468.723L2655.34,462.86L2653.1,456.971L2651.12,451.069L2649.39,445.17L2647.9,439.288L2646.63,433.436L2645.56,427.627L2644.68,421.876L2643.98,416.192L2643.44,410.592L2643.04,405.087L2642.78,399.685L2642.64,394.401L2642.6,389.248L2642.65,384.24L2642.78,379.379L2642.77,379.957L2642.77,379.951ZM2675.65,379.951L2675.65,380.247L2675.64,380.529L2675.65,379.951ZM3165.81,378.764L3132.96,380.052L3132.94,379.41L3131.71,362.506L3128.16,346.798L3122.43,332.126L3114.62,318.389L3104.81,305.538L3093.08,293.579L3079.55,282.547L3064.36,272.493L3047.66,263.472L3029.63,255.529L3010.46,248.702L2990.33,243.025L2969.44,238.521L2947.97,235.213L2926.13,233.116L2904.1,232.239L2882.07,232.592L2860.24,234.178L2838.81,236.998L2817.95,241.049L2797.87,246.322L2778.75,252.806L2760.79,260.477L2744.16,269.307L2729.04,279.263L2715.57,290.308L2703.89,302.409L2694.09,315.558L2686.26,329.783L2680.49,345.168L2676.89,361.833L2675.65,379.944L2642.77,379.944L2644.34,357.269L2648.94,335.914L2656.39,316.029L2666.45,297.723L2678.85,281.065L2693.32,266.07L2709.59,252.716L2727.43,240.958L2746.64,230.746L2767.04,222.03L2788.43,214.77L2810.66,208.931L2833.54,204.484L2856.92,201.409L2880.62,199.684L2904.49,199.301L2928.36,200.253L2952.05,202.528L2975.4,206.128L2998.24,211.052L3020.42,217.308L3041.76,224.908L3062.08,233.869L3081.23,244.218L3099,255.986L3115.21,269.216L3129.63,283.942L3142.02,300.187L3152.1,317.945L3159.6,337.151L3164.24,357.692L3165.82,379.393L3165.81,378.751L3165.81,378.764ZM3132.96,380.052L3132.94,379.732L3132.94,379.41L3132.96,380.052Z" style="fill:rgb(254,254,254);fill-rule:nonzero;"/>
            </g>
            <path d="M2901.23,30.003C2985.53,30.003 3054.95,86.345 3054.95,170.636C3054.95,254.931 2987.7,311.269 2903.41,311.269C2819.12,311.269 2749.7,254.927 2749.7,170.636C2749.7,86.342 2816.94,30.003 2901.23,30.003Z" style="fill:rgb(254,254,254);stroke:rgb(254,254,254);stroke-width:32.93px;"/>
            <g>
                <rect x="2888.39" y="518.53" width="32.59" height="104.53" style="fill:rgb(254,254,254);fill-rule:nonzero;"/>
            </g>
            <g>
                <rect x="2734.23" y="337.558" width="32.93" height="192.962" style="fill:rgb(254,254,254);fill-rule:nonzero;"/>
            </g>
            <g>
                <rect x="3044.66" y="337.558" width="32.93" height="192.962" style="fill:rgb(254,254,254);fill-rule:nonzero;"/>
            </g>
            <g>
                <rect x="2888.3" y="315.011" width="32.92" height="124.297" style="fill:rgb(254,254,254);fill-rule:nonzero;"/>
            </g>
            <g>
                <path d="M2740.48,633.208L2746.39,600.811L2756.43,602.569L2766.46,604.216L2776.47,605.749L2786.47,607.168L2796.45,608.468L2806.42,609.662L2816.37,610.737L2826.31,611.699L2836.22,612.549L2846.13,613.285L2856.03,613.907L2865.91,614.418L2875.77,614.811L2885.62,615.094L2895.45,615.265L2905.27,615.319L2915.07,615.262L2924.87,615.09L2934.64,614.808L2944.41,614.411L2954.16,613.9L2963.89,613.278L2973.61,612.542L2983.32,611.692L2993.01,610.731L3002.69,609.655L3012.36,608.468L3022.01,607.168L3031.65,605.752L3041.27,604.226L3050.88,602.586L3060.48,600.835L3066.64,633.184L3056.67,635.006L3046.67,636.713L3036.67,638.3L3026.64,639.769L3016.61,641.123L3006.55,642.357L2996.49,643.476L2986.41,644.475L2976.31,645.359L2966.21,646.125L2956.09,646.77L2945.95,647.301L2935.8,647.715L2925.64,648.011L2915.46,648.185L2905.27,648.246L2895.07,648.189L2884.85,648.014L2874.62,647.718L2864.38,647.308L2854.13,646.78L2843.86,646.135L2833.58,645.369L2823.28,644.488L2812.97,643.49L2802.66,642.374L2792.32,641.14L2781.98,639.789L2771.62,638.32L2761.25,636.734L2750.87,635.029L2740.48,633.208Z" style="fill:rgb(254,254,254);fill-rule:nonzero;"/>
            </g>
            <g>
                <path d="M2783.09,130.166C2864.22,111.84 2943.64,113.941 3021.85,130.28C3029.21,156.3 3030.24,182.041 3023.85,207.452C2941.25,282.534 2861.5,280.11 2781.3,204.236C2774.18,180.229 2776.45,155.389 2783.09,130.166Z" style="fill:rgb(254,254,254);"/>
                <path id="_11" serif:id="1" d="M3037.6,125.776L3006.1,134.785L3018.51,146.398L3011.36,144.946L3004.2,143.574L2997.03,142.287L2989.86,141.087L2982.69,139.971L2975.51,138.943L2968.33,138.001L2961.14,137.151L2953.95,136.391L2946.76,135.722L2939.55,135.144L2932.35,134.66L2925.13,134.27L2917.91,133.978L2910.68,133.78L2903.45,133.679L2896.21,133.679L2888.96,133.776L2881.71,133.975L2874.45,134.277L2867.18,134.68L2859.91,135.188L2852.62,135.8L2845.33,136.519L2838.03,137.346L2830.73,138.28L2823.41,139.326L2816.08,140.479L2808.74,141.746L2801.39,143.124L2794.04,144.616L2786.67,146.223L2779.49,114.096L2787.33,112.385L2795.15,110.798L2802.97,109.333L2810.77,107.985L2818.57,106.758L2826.36,105.649L2834.14,104.654L2841.91,103.777L2849.66,103.01L2857.41,102.358L2865.15,101.817L2872.88,101.387L2880.59,101.067L2888.3,100.856L2895.99,100.751L2903.68,100.751L2911.35,100.856L2919.01,101.064L2926.67,101.377L2934.31,101.79L2941.94,102.301L2949.56,102.909L2957.17,103.615L2964.77,104.419L2972.35,105.316L2979.93,106.308L2987.5,107.39L2995.05,108.563L3002.6,109.827L3010.14,111.182L3017.66,112.62L3025.18,114.146L3037.59,125.76L3037.6,125.776ZM3025.18,114.163L3034.89,116.19L3037.6,125.776L3025.18,114.163ZM3034.83,219.667L3012.87,195.241L3007.98,203.419L3008.49,201.315L3008.96,199.211L3009.39,197.106L3009.79,195.002L3010.14,192.895L3010.46,190.787L3010.74,188.68L3010.99,186.569L3011.2,184.454L3011.37,182.34L3011.5,180.223L3011.6,178.102L3011.66,175.977L3011.69,173.85L3011.68,171.718L3011.64,169.584L3011.56,167.446L3011.44,165.305L3011.29,163.157L3011.1,161.006L3010.88,158.851L3010.62,156.69L3010.33,154.525L3010,152.354L3009.63,150.179L3009.23,147.998L3008.8,145.81L3008.33,143.618L3007.83,141.42L3007.28,139.215L3006.71,137.006L3006.1,134.791L3037.6,125.783L3038.33,128.445L3039.03,131.111L3039.68,133.776L3040.29,136.445L3040.86,139.117L3041.39,141.79L3041.88,144.465L3042.33,147.144L3042.74,149.823L3043.1,152.505L3043.42,155.188L3043.7,157.87L3043.93,160.556L3044.12,163.241L3044.27,165.93L3044.37,168.619L3044.43,171.305L3044.44,173.994L3044.41,176.683L3044.33,179.372L3044.2,182.061L3044.03,184.747L3043.81,187.433L3043.55,190.118L3043.23,192.801L3042.87,195.479L3042.47,198.158L3042.01,200.834L3041.51,203.506L3040.97,206.175L3040.37,208.841L3039.72,211.503L3034.83,219.681L3034.83,219.667ZM3039.72,211.489L3038.51,216.323L3034.83,219.667L3039.72,211.489ZM2765.6,208.941L2796.99,199.537L2792.52,192.249L2799.66,198.804L2806.77,204.918L2813.84,210.595L2820.87,215.835L2827.85,220.642L2834.79,225.015L2841.69,228.961L2848.53,232.484L2855.34,235.586L2862.09,238.276L2868.81,240.554L2875.49,242.43L2882.13,243.909L2888.76,244.995L2895.36,245.691L2901.97,246L2908.57,245.922L2915.19,245.455L2921.83,244.598L2928.51,243.348L2935.23,241.697L2942,239.64L2948.83,237.166L2955.71,234.272L2962.65,230.951L2969.65,227.197L2976.71,223.002L2983.83,218.36L2991.01,213.267L2998.25,207.721L3005.54,201.718L3012.88,195.251L3034.84,219.677L3026.71,226.837L3018.57,233.55L3010.39,239.815L3002.2,245.63L2993.97,250.995L2985.7,255.902L2977.41,260.352L2969.08,264.339L2960.71,267.858L2952.31,270.904L2943.88,273.468L2935.41,275.549L2926.93,277.139L2918.43,278.235L2909.91,278.833L2901.4,278.934L2892.9,278.537L2884.42,277.643L2875.97,276.258L2867.55,274.386L2859.17,272.033L2850.84,269.206L2842.55,265.912L2834.32,262.158L2826.13,257.949L2818,253.294L2809.91,248.198L2801.87,242.665L2793.87,236.699L2785.91,230.306L2777.98,223.489L2770.09,216.249L2765.62,208.962L2765.6,208.941ZM2770.08,216.229L2766.86,213.19L2765.6,208.941L2770.07,216.229L2770.08,216.229ZM2779.5,114.106L2786.68,146.233L2798.91,134.381L2798.35,136.583L2797.81,138.774L2797.29,140.956L2796.8,143.127L2796.35,145.289L2795.92,147.44L2795.52,149.581L2795.16,151.712L2794.82,153.83L2794.52,155.937L2794.25,158.035L2794.01,160.119L2793.8,162.193L2793.63,164.253L2793.49,166.303L2793.39,168.34L2793.33,170.367L2793.3,172.381L2793.3,174.384L2793.35,176.377L2793.43,178.357L2793.55,180.33L2793.7,182.29L2793.9,184.239L2794.14,186.179L2794.42,188.112L2794.74,190.034L2795.1,191.95L2795.51,193.856L2795.95,195.755L2796.44,197.648L2796.98,199.537L2765.6,208.941L2764.86,206.323L2764.18,203.701L2763.56,201.076L2763,198.448L2762.5,195.819L2762.07,193.19L2761.68,190.562L2761.36,187.933L2761.09,185.305L2760.88,182.68L2760.72,180.058L2760.61,177.436L2760.56,174.818L2760.55,172.203L2760.58,169.591L2760.67,166.986L2760.79,164.384L2760.97,161.786L2761.18,159.194L2761.44,156.606L2761.73,154.025L2762.07,151.447L2762.43,148.875L2762.84,146.307L2763.28,143.746L2763.76,141.188L2764.26,138.637L2764.8,136.092L2765.37,133.551L2765.97,131.013L2766.59,128.482L2767.24,125.958L2779.48,114.106L2779.5,114.106ZM2767.26,125.958L2769.8,116.297L2779.5,114.106L2767.26,125.958Z" style="fill:rgb(254,254,254);fill-rule:nonzero;"/>
            </g>
            <g>
                <rect x="2674.16" y="444.175" width="85.4" height="32.927" style="fill:rgb(254,254,254);fill-rule:nonzero;"/>
            </g>
            <g>
                <rect x="3069.22" y="444.175" width="69.59" height="32.927" style="fill:rgb(254,254,254);fill-rule:nonzero;"/>
            </g>
            <g>
                <rect x="2946.36" y="373.336" width="75.44" height="32.927" style="fill:rgb(254,254,254);fill-rule:nonzero;"/>
            </g>
        </g>
        <g transform="matrix(0.0535574,0,0,0.0535574,-137.741,0.36413)">
            <rect x="2895.78" y="520.93" width="17.82" height="104.53" style="fill:rgb(254,254,254);fill-rule:nonzero;"/>
        </g>
        <g transform="matrix(0.0535574,0,0,0.0535574,-137.741,0.36413)">
            <rect x="2741.62" y="339.958" width="18.16" height="192.962" style="fill:rgb(254,254,254);fill-rule:nonzero;"/>
        </g>
        <g transform="matrix(0.0535574,0,0,0.0535574,-137.741,0.36413)">
            <rect x="3052.04" y="339.958" width="18.17" height="192.962" style="fill:rgb(254,254,254);fill-rule:nonzero;"/>
        </g>
        <g transform="matrix(0.0535574,0,0,0.0535574,-137.741,0.36413)">
            <rect x="2895.65" y="317.414" width="18.23" height="124.294" style="fill:rgb(254,254,254);fill-rule:nonzero;"/>
        </g>
        <g transform="matrix(0.0535574,0,0,0.0535574,-137.741,0.36413)">
            <path d="M2741.77,628.522L2745.1,610.297L2755.22,612.068L2765.32,613.729L2775.41,615.272L2785.49,616.7L2795.55,618.014L2805.59,619.214L2815.63,620.3L2825.65,621.272L2835.65,622.129L2845.64,622.872L2855.61,623.497L2865.57,624.011L2875.52,624.411L2885.45,624.693L2895.37,624.865L2905.27,624.922L2915.16,624.865L2925.04,624.69L2934.9,624.404L2944.75,624.004L2954.58,623.49L2964.4,622.861L2974.21,622.119L2984,621.265L2993.78,620.293L3003.54,619.208L3013.29,618.011L3023.03,616.697L3032.75,615.272L3042.46,613.732L3052.15,612.078L3061.84,610.31L3065.3,628.508L3055.41,630.317L3045.49,632.008L3035.57,633.581L3025.63,635.039L3015.68,636.381L3005.71,637.604L2995.73,638.713L2985.74,639.705L2975.73,640.582L2965.7,641.339L2955.66,641.984L2945.62,642.508L2935.55,642.918L2925.47,643.211L2915.38,643.386L2905.27,643.446L2895.16,643.386L2885.02,643.214L2874.88,642.922L2864.72,642.515L2854.54,641.991L2844.36,641.349L2834.16,640.592L2823.95,639.718L2813.72,638.727L2803.48,637.618L2793.23,636.394L2782.96,635.053L2772.68,633.594L2762.39,632.021L2752.09,630.33L2741.77,628.522Z" style="fill:rgb(254,254,254);fill-rule:nonzero;"/>
        </g>
        <g transform="matrix(0.0535574,0,0,0.0535574,-137.741,0.36413)">
            <rect x="2674.16" y="453.956" width="85.4" height="18.168" style="fill:rgb(254,254,254);fill-rule:nonzero;"/>
        </g>
        <g transform="matrix(0.0535574,0,0,0.0535574,-137.741,0.36413)">
            <rect x="3069.22" y="453.956" width="69.59" height="18.168" style="fill:rgb(254,254,254);fill-rule:nonzero;"/>
        </g>
        <g transform="matrix(0.0535574,0,0,0.0535574,-137.741,0.36413)">
            <rect x="2946.36" y="383.117" width="75.44" height="18.165" style="fill:rgb(254,254,254);fill-rule:nonzero;"/>
        </g>
        <g transform="matrix(0.0535574,0,0,0.0535574,-137.741,0.36413)">
            <path d="M2762.25,113.534L3039.63,113.534C3082.85,113.534 3118.22,145.85 3118.22,185.349L3118.22,276.171L2683.66,276.171L2683.66,185.349C2683.66,145.85 2719.02,113.534 2762.25,113.534Z" style="fill:rgb(0,160,220);"/>
            <path id="_12" serif:id="1" d="M3039.62,122.334L2762.24,122.334L2762.24,104.738L3039.62,104.738L3039.62,122.334ZM3127.84,185.349L3108.59,185.349L3108.5,182.115L3108.23,178.928L3107.79,175.789L3107.18,172.7L3106.41,169.661L3105.47,166.68L3104.39,163.759L3103.15,160.902L3101.77,158.115L3100.24,155.399L3098.57,152.761L3096.77,150.199L3094.84,147.726L3092.79,145.339L3090.62,143.047L3088.32,140.852L3085.92,138.758L3083.41,136.771L3080.8,134.892L3078.09,133.127L3075.29,131.484L3072.4,129.961L3069.43,128.566L3066.38,127.302L3063.25,126.17L3060.05,125.175L3056.79,124.324L3053.47,123.618L3050.09,123.064L3046.65,122.66L3043.16,122.415L3039.62,122.331L3039.62,104.735L3044.14,104.839L3048.61,105.151L3053.01,105.666L3057.36,106.378L3061.62,107.282L3065.81,108.375L3069.9,109.649L3073.91,111.098L3077.81,112.718L3081.61,114.503L3085.31,116.449L3088.88,118.55L3092.34,120.802L3095.67,123.198L3098.87,125.733L3101.94,128.401L3104.86,131.201L3107.63,134.126L3110.26,137.171L3112.72,140.331L3115.02,143.601L3117.15,146.976L3119.1,150.452L3120.88,154.021L3122.46,157.682L3123.86,161.426L3125.05,165.248L3126.04,169.144L3126.82,173.107L3127.39,177.134L3127.73,181.214L3127.84,185.342L3127.84,185.349ZM3108.59,276.171L3108.59,185.349L3127.84,185.349L3127.84,276.171L3118.21,284.971L3108.58,276.171L3108.59,276.171ZM3127.84,276.171L3127.84,284.971L3118.21,284.971L3127.84,276.171ZM2683.65,267.371L3118.21,267.371L3118.21,284.967L2683.65,284.967L2674.02,276.167L2683.65,267.368L2683.65,267.371ZM2683.65,284.967L2674.02,284.967L2674.02,276.167L2683.65,284.967ZM2693.28,185.345L2693.28,276.167L2674.03,276.167L2674.03,185.345L2693.28,185.345ZM2762.24,104.735L2762.24,122.331L2758.7,122.415L2755.22,122.66L2751.78,123.064L2748.4,123.618L2745.07,124.324L2741.81,125.175L2738.62,126.17L2735.49,127.302L2732.44,128.57L2729.47,129.964L2726.58,131.487L2723.78,133.131L2721.07,134.896L2718.46,136.774L2715.95,138.761L2713.55,140.855L2711.25,143.05L2709.08,145.342L2707.02,147.729L2705.09,150.203L2703.29,152.761L2701.62,155.399L2700.1,158.115L2698.72,160.902L2697.48,163.759L2696.39,166.68L2695.46,169.661L2694.69,172.697L2694.08,175.786L2693.64,178.925L2693.37,182.112L2693.28,185.345L2674.02,185.345L2674.14,181.218L2674.48,177.137L2675.04,173.11L2675.82,169.147L2676.82,165.251L2678.01,161.43L2679.4,157.685L2680.99,154.025L2682.76,150.455L2684.72,146.979L2686.85,143.605L2689.15,140.334L2691.61,137.174L2694.23,134.129L2697.01,131.205L2699.93,128.405L2702.99,125.736L2706.19,123.202L2709.52,120.805L2712.98,118.553L2716.56,116.452L2720.25,114.506L2724.05,112.721L2727.96,111.101L2731.96,109.652L2736.06,108.378L2740.25,107.286L2744.51,106.382L2748.85,105.669L2753.26,105.155L2757.72,104.842L2762.24,104.738L2762.24,104.735Z" style="fill:white;fill-rule:nonzero;"/>
        </g>
        <g transform="matrix(0.0535574,0,0,0.0535574,-137.741,0.36413)">
            <path d="M3162.13,380.041C3163.29,409.685 3173.12,508.285 3068.2,535.965L3069.39,635.466C3059.74,699.018 2938.53,701.052 2904.22,642.051C2868.15,695.109 2759.7,695.378 2739.99,646.444L2739.77,537.569C2650.29,508.709 2640.68,431.772 2642.48,380.62C2642.48,142.166 3162.13,155.141 3162.13,380.041Z" style="fill:rgb(0,160,220);"/>
            <path id="_13" serif:id="1" d="M3077.82,535.851L3058.59,536.08L3065.75,526.654L3074.73,524.012L3083.03,521.021L3090.7,517.71L3097.77,514.103L3104.26,510.231L3110.2,506.114L3115.63,501.771L3120.57,497.226L3125.06,492.497L3129.12,487.6L3132.79,482.551L3136.07,477.371L3138.99,472.077L3141.58,466.689L3143.85,461.227L3145.82,455.711L3147.51,450.168L3148.94,444.619L3150.13,439.089L3151.09,433.604L3151.84,428.189L3152.42,422.871L3152.83,417.675L3153.09,412.626L3153.24,407.749L3153.27,403.073L3153.23,398.619L3153.12,394.411L3152.98,390.468L3152.82,386.815L3152.66,383.46L3152.53,380.421L3171.74,379.668L3171.87,382.583L3172.03,385.937L3172.19,389.698L3172.35,393.826L3172.46,398.29L3172.5,403.063L3172.46,408.112L3172.31,413.412L3172.02,418.938L3171.57,424.663L3170.93,430.562L3170.09,436.609L3169,442.78L3167.66,449.049L3166.03,455.388L3164.08,461.771L3161.79,468.175L3159.13,474.564L3156.08,480.917L3152.6,487.2L3148.69,493.378L3144.3,499.421L3139.42,505.297L3134.04,510.967L3128.12,516.403L3121.66,521.569L3114.64,526.433L3107.05,530.967L3098.87,535.145L3090.08,538.94L3080.68,542.325L3070.65,545.279L3077.82,535.854L3077.82,535.851ZM3058.59,536.08L3058.49,528.567L3065.75,526.654L3058.58,536.08L3058.59,536.08ZM3059.77,635.581L3058.59,536.08L3077.82,535.851L3079,635.352L3078.89,636.915L3059.78,635.584L3059.77,635.581ZM3079,635.352L3079.01,636.139L3078.89,636.915L3079,635.352ZM2912.17,647.473L2896.28,636.636L2912.53,637.207L2915.5,641.799L2918.9,646.105L2922.7,650.138L2926.9,653.893L2931.45,657.369L2936.34,660.552L2941.53,663.439L2946.98,666.024L2952.67,668.296L2958.55,670.249L2964.59,671.879L2970.75,673.183L2976.99,674.158L2983.26,674.8L2989.53,675.113L2995.76,675.093L3001.91,674.74L3007.93,674.061L3013.8,673.056L3019.45,671.731L3024.87,670.094L3030,668.155L3034.81,665.923L3039.27,663.412L3043.36,660.636L3047.03,657.604L3050.29,654.33L3053.11,650.814L3055.49,647.053L3057.42,643.023L3058.89,638.693L3059.88,634.018L3078.89,636.912L3077.43,643.792L3075.22,650.296L3072.31,656.38L3068.75,662.01L3064.62,667.17L3059.97,671.849L3054.88,676.051L3049.39,679.788L3043.56,683.072L3037.43,685.916L3031.04,688.333L3024.42,690.333L3017.6,691.926L3010.63,693.123L3003.53,693.923L2996.34,694.333L2989.09,694.356L2981.8,693.993L2974.52,693.247L2967.28,692.114L2960.1,690.592L2953.02,688.679L2946.08,686.373L2939.31,683.667L2932.74,680.558L2926.41,677.035L2920.37,673.096L2914.65,668.73L2909.29,663.926L2904.35,658.686L2899.87,653.002L2895.91,646.888L2912.16,647.459L2912.17,647.473ZM2896.28,636.636L2904.86,624.011L2912.53,637.207L2896.28,636.636ZM2730.39,646.468L2749.62,646.428L2748.92,642.844L2750.54,646.27L2752.55,649.496L2754.96,652.548L2757.77,655.429L2760.98,658.135L2764.57,660.653L2768.52,662.968L2772.81,665.069L2777.42,666.941L2782.31,668.572L2787.45,669.953L2792.81,671.076L2798.36,671.933L2804.07,672.521L2809.89,672.834L2815.8,672.871L2821.77,672.629L2827.76,672.108L2833.73,671.308L2839.66,670.229L2845.51,668.874L2851.25,667.244L2856.86,665.338L2862.3,663.163L2867.53,660.723L2872.53,658.021L2877.27,655.063L2881.73,651.856L2885.88,648.407L2889.7,644.72L2893.16,640.797L2896.26,636.633L2912.16,647.47L2908.09,652.942L2903.59,658.041L2898.7,662.757L2893.49,667.099L2887.96,671.073L2882.17,674.683L2876.15,677.936L2869.92,680.84L2863.52,683.405L2856.97,685.63L2850.3,687.523L2843.54,689.089L2836.72,690.329L2829.86,691.247L2822.99,691.845L2816.13,692.121L2809.32,692.077L2802.57,691.714L2795.92,691.029L2789.39,690.02L2783,688.686L2776.79,687.019L2770.77,685.012L2764.98,682.656L2759.44,679.943L2754.19,676.861L2749.26,673.395L2744.69,669.533L2740.53,665.264L2736.84,660.585L2733.66,655.503L2731.08,650.041L2730.38,646.458L2730.39,646.468ZM2731.08,650.051L2730.39,648.327L2730.39,646.468L2731.09,650.051L2731.08,650.051ZM2749.39,537.555L2749.62,646.431L2730.39,646.471L2730.16,537.595L2742.72,528.409L2749.39,537.555ZM2742.72,528.409L2749.38,530.554L2749.39,537.552L2742.72,528.406L2742.72,528.409ZM2632.87,380.626L2652.1,380.626L2652.09,380.966L2651.97,385.678L2651.91,390.519L2651.95,395.466L2652.09,400.508L2652.34,405.631L2652.71,410.824L2653.22,416.071L2653.87,421.355L2654.68,426.666L2655.66,431.99L2656.82,437.311L2658.16,442.619L2659.71,447.899L2661.46,453.14L2663.44,458.326L2665.65,463.452L2668.09,468.501L2670.79,473.465L2673.76,478.332L2677,483.095L2680.53,487.741L2684.36,492.262L2688.51,496.652L2692.99,500.897L2697.81,504.991L2703,508.92L2708.57,512.678L2714.54,516.248L2720.92,519.619L2727.74,522.779L2735,525.713L2742.72,528.409L2736.83,546.738L2728.24,543.743L2720.1,540.453L2712.4,536.88L2705.12,533.034L2698.27,528.933L2691.83,524.591L2685.8,520.019L2680.16,515.24L2674.91,510.265L2670.04,505.112L2665.54,499.798L2661.4,494.346L2657.6,488.769L2654.14,483.085L2651,477.314L2648.16,471.469L2645.62,465.57L2643.36,459.63L2641.36,453.667L2639.62,447.694L2638.1,441.725L2636.81,435.775L2635.72,429.859L2634.83,423.99L2634.11,418.179L2633.55,412.441L2633.15,406.791L2632.88,401.238L2632.73,395.799L2632.69,390.485L2632.74,385.312L2632.88,380.287L2632.87,380.626ZM2652.1,380.623L2652.1,380.801L2652.09,380.962L2652.1,380.623ZM3171.75,379.672L3152.53,380.425L3152.52,380.048L3151.14,360.99L3147.11,343.188L3140.61,326.557L3131.79,311.037L3120.78,296.607L3107.71,283.27L3092.73,271.051L3076.01,259.986L3057.73,250.107L3038.07,241.445L3017.23,234.023L2995.41,227.866L2972.8,222.992L2949.59,219.415L2925.99,217.15L2902.2,216.202L2878.42,216.582L2854.83,218.296L2831.64,221.348L2809.05,225.738L2787.25,231.466L2766.45,238.524L2746.83,246.904L2728.58,256.595L2711.9,267.579L2696.96,279.838L2683.91,293.354L2672.91,308.127L2664.08,324.177L2657.56,341.555L2653.51,360.338L2652.11,380.623L2632.88,380.623L2634.46,357.669L2639.1,336.143L2646.6,316.133L2656.74,297.696L2669.27,280.87L2683.94,265.663L2700.52,252.057L2718.8,240.02L2738.55,229.523L2759.59,220.531L2781.73,213.019L2804.78,206.962L2828.56,202.34L2852.88,199.14L2877.57,197.345L2902.43,196.948L2927.3,197.937L2951.97,200.306L2976.28,204.054L3000.04,209.173L3023.06,215.667L3045.16,223.54L3066.17,232.8L3085.88,243.455L3104.11,255.526L3120.66,269.028L3135.31,283.982L3147.83,300.399L3157.98,318.268L3165.5,337.551L3170.17,358.18L3171.76,380.045L3171.75,379.668L3171.75,379.672ZM3152.53,380.425L3152.52,380.243L3152.52,380.048L3152.53,380.425Z" style="fill:white;fill-rule:nonzero;"/>
        </g>
        <g transform="matrix(0.0535574,0,0,0.0535574,-137.741,0.36413)">
            <path d="M2899.06,9.63C2988.42,9.63 3062.02,69.36 3062.02,158.72C3062.02,248.084 2990.73,307.811 2901.37,307.811C2812,307.811 2738.41,248.08 2738.41,158.72C2738.41,69.357 2809.69,9.63 2899.06,9.63Z" style="fill:rgb(0,160,220);stroke:white;stroke-width:19.26px;"/>
        </g>
        <g transform="matrix(0.0535574,0,0,0.0535574,-137.741,0.36413)">
            <rect x="2893.3" y="469.213" width="18.84" height="169.137" style="fill:white;fill-rule:nonzero;"/>
        </g>
        <g transform="matrix(0.0535574,0,0,0.0535574,-137.741,0.36413)">
            <rect x="2729.84" y="335.679" width="19.26" height="204.569" style="fill:white;fill-rule:nonzero;"/>
        </g>
        <g transform="matrix(0.0535574,0,0,0.0535574,-137.741,0.36413)">
            <rect x="3058.94" y="335.679" width="19.26" height="204.569" style="fill:white;fill-rule:nonzero;"/>
        </g>
        <g transform="matrix(0.0535574,0,0,0.0535574,-137.741,0.36413)">
            <path d="M2732.57,640.434L2736.13,620.925L2746.86,622.804L2757.56,624.562L2768.26,626.196L2778.94,627.712L2789.61,629.107L2800.26,630.377L2810.89,631.527L2821.51,632.555L2832.11,633.463L2842.7,634.25L2853.28,634.915L2863.84,635.46L2874.38,635.883L2884.91,636.186L2895.42,636.367L2905.91,636.424L2916.4,636.364L2926.87,636.182L2937.32,635.88L2947.76,635.453L2958.18,634.908L2968.59,634.243L2978.99,633.456L2989.37,632.549L2999.73,631.52L3010.08,630.371L3020.42,629.1L3030.74,627.708L3041.04,626.196L3051.34,624.566L3061.61,622.811L3071.88,620.939L3075.59,640.421L3065.09,642.337L3054.59,644.128L3044.06,645.796L3033.53,647.342L3022.97,648.764L3012.41,650.064L3001.82,651.238L2991.23,652.29L2980.61,653.217L2969.99,654.024L2959.35,654.703L2948.69,655.261L2938.02,655.695L2927.33,656.004L2916.63,656.192L2905.92,656.253L2895.19,656.192L2884.45,656.007L2873.69,655.701L2862.92,655.268L2852.13,654.713L2841.33,654.034L2830.52,653.231L2819.69,652.303L2808.85,651.251L2797.99,650.078L2787.12,648.78L2776.24,647.359L2765.34,645.812L2754.43,644.142L2743.5,642.35L2732.57,640.434Z" style="fill:white;fill-rule:nonzero;"/>
        </g>
        <g transform="matrix(0.0535574,0,0,0.0535574,-137.741,0.36413)">
            <path d="M2773.81,115.817C2859.83,96.389 2944.01,98.614 3026.93,115.938C3034.73,143.524 3035.82,170.811 3029.05,197.752C2941.48,277.347 2856.94,274.783 2771.91,194.343C2764.37,168.892 2766.77,142.559 2773.81,115.817Z" style="fill:white;"/>
            <path id="_14" serif:id="1" d="M3036.14,113.303L3017.72,118.573L3024.98,125.366L3017.3,123.807L3009.63,122.338L3001.94,120.956L2994.25,119.669L2986.56,118.472L2978.86,117.37L2971.15,116.361L2963.43,115.447L2955.71,114.63L2947.99,113.911L2940.25,113.292L2932.51,112.775L2924.76,112.358L2917,112.042L2909.24,111.83L2901.47,111.723L2893.69,111.723L2885.9,111.83L2878.1,112.045L2870.3,112.368L2862.48,112.802L2854.66,113.346L2846.83,114.005L2838.99,114.778L2831.14,115.666L2823.28,116.671L2815.41,117.793L2807.54,119.034L2799.65,120.395L2791.75,121.877L2783.84,123.481L2775.91,125.208L2771.72,106.419L2779.91,104.63L2788.1,102.97L2796.27,101.437L2804.43,100.029L2812.59,98.745L2820.73,97.582L2828.87,96.543L2836.99,95.625L2845.11,94.826L2853.21,94.143L2861.3,93.578L2869.38,93.128L2877.45,92.792L2885.51,92.57L2893.56,92.459L2901.6,92.459L2909.63,92.57L2917.65,92.789L2925.66,93.115L2933.66,93.545L2941.65,94.079L2949.63,94.718L2957.6,95.457L2965.56,96.298L2973.51,97.239L2981.45,98.278L2989.38,99.414L2997.3,100.644L3005.21,101.968L3013.11,103.387L3021,104.896L3028.88,106.496L3036.14,113.289L3036.14,113.303ZM3028.87,106.509L3034.55,107.696L3036.14,113.303L3028.87,106.509ZM3035.47,204.894L3022.63,190.609L3019.76,195.392L3020.34,193.029L3020.86,190.666L3021.35,188.3L3021.8,185.933L3022.2,183.564L3022.55,181.194L3022.87,178.821L3023.15,176.448L3023.38,174.071L3023.58,171.695L3023.73,169.315L3023.84,166.932L3023.91,164.545L3023.94,162.159L3023.93,159.766L3023.88,157.372L3023.79,154.976L3023.66,152.576L3023.49,150.173L3023.28,147.766L3023.03,145.356L3022.74,142.942L3022.41,140.522L3022.04,138.099L3021.64,135.672L3021.19,133.242L3020.71,130.808L3020.19,128.371L3019.63,125.928L3019.03,123.481L3018.39,121.03L3017.72,118.576L3036.14,113.306L3036.88,116.022L3037.59,118.738L3038.26,121.454L3038.88,124.173L3039.46,126.892L3040,129.612L3040.5,132.331L3040.96,135.05L3041.37,137.769L3041.74,140.489L3042.07,143.208L3042.35,145.927L3042.59,148.647L3042.78,151.366L3042.93,154.085L3043.03,156.804L3043.09,159.52L3043.1,162.236L3043.07,164.952L3042.99,167.668L3042.86,170.381L3042.68,173.093L3042.46,175.806L3042.19,178.515L3041.88,181.224L3041.51,183.93L3041.1,186.633L3040.65,189.335L3040.14,192.034L3039.58,194.73L3038.98,197.422L3038.33,200.111L3035.47,204.894ZM3038.33,200.111L3037.62,202.938L3035.47,204.894L3038.33,200.111ZM2762.73,197.093L2781.08,191.594L2778.47,187.332L2786.22,194.444L2793.95,201.096L2801.65,207.284L2809.33,213.012L2816.99,218.279L2824.62,223.089L2832.22,227.439L2839.8,231.334L2847.35,234.776L2854.88,237.771L2862.38,240.319L2869.87,242.42L2877.33,244.08L2884.79,245.304L2892.24,246.091L2899.69,246.44L2907.14,246.353L2914.61,245.828L2922.09,244.864L2929.6,243.455L2937.14,241.603L2944.71,239.301L2952.32,236.544L2959.97,233.328L2967.66,229.647L2975.39,225.499L2983.16,220.881L2990.97,215.788L2998.82,210.219L3006.72,204.168L3014.65,197.634L3022.62,190.616L3035.46,204.901L3027.03,212.326L3018.6,219.274L3010.16,225.745L3001.71,231.738L2993.25,237.254L2984.77,242.289L2976.29,246.84L2967.79,250.907L2959.27,254.487L2950.74,257.579L2942.19,260.178L2933.64,262.282L2925.07,263.885L2916.5,264.991L2907.92,265.593L2899.35,265.694L2890.79,265.294L2882.24,264.393L2873.72,262.994L2865.21,261.102L2856.74,258.719L2848.28,255.852L2839.87,252.504L2831.48,248.679L2823.12,244.38L2814.79,239.613L2806.48,234.383L2798.21,228.689L2789.96,222.538L2781.73,215.93L2773.52,208.868L2765.34,201.355L2762.72,197.093L2762.73,197.093ZM2765.34,201.355L2763.46,199.577L2762.73,197.093L2765.34,201.355ZM2771.7,106.422L2775.9,125.212L2783.06,118.281L2782.44,120.691L2781.85,123.094L2781.28,125.491L2780.75,127.88L2780.24,130.264L2779.77,132.64L2779.33,135.01L2778.92,137.369L2778.55,139.722L2778.21,142.069L2777.91,144.405L2777.64,146.734L2777.41,149.053L2777.22,151.366L2777.07,153.668L2776.95,155.964L2776.88,158.25L2776.85,160.529L2776.85,162.798L2776.9,165.06L2777,167.312L2777.13,169.557L2777.32,171.792L2777.54,174.021L2777.81,176.243L2778.13,178.458L2778.5,180.663L2778.91,182.861L2779.38,185.053L2779.89,187.241L2780.46,189.422L2781.08,191.597L2762.72,197.096L2761.98,194.495L2761.3,191.886L2760.69,189.275L2760.14,186.659L2759.64,184.041L2759.2,181.419L2758.83,178.797L2758.51,176.176L2758.24,173.55L2758.03,170.925L2757.87,168.297L2757.76,165.672L2757.7,163.046L2757.69,160.418L2757.73,157.793L2757.81,155.167L2757.94,152.542L2758.12,149.92L2758.34,147.299L2758.6,144.677L2758.89,142.058L2759.24,139.44L2759.61,136.825L2760.03,134.21L2760.47,131.598L2760.96,128.986L2761.48,126.378L2762.03,123.77L2762.61,121.165L2763.22,118.56L2763.86,115.958L2764.53,113.356L2771.69,106.425L2771.7,106.422ZM2764.55,113.353L2766.03,107.703L2771.7,106.422L2764.54,113.353L2764.55,113.353Z" style="fill:rgb(254,254,254);fill-rule:nonzero;"/>
        </g>
        <g transform="matrix(0.0535574,0,0,0.0535574,-137.741,0.36413)">
            <rect x="2658.33" y="456.534" width="90.53" height="19.261" style="fill:white;fill-rule:nonzero;"/>
        </g>
        <g transform="matrix(0.0535574,0,0,0.0535574,-137.741,0.36413)">
            <rect x="3077.15" y="456.534" width="73.77" height="19.261" style="fill:white;fill-rule:nonzero;"/>
        </g>
    </g>
</svg>
