<?xml version="1.0" encoding="UTF-8" standalone="no"?>
<!DOCTYPE svg PUBLIC "-//W3C//DTD SVG 1.1//EN" "http://www.w3.org/Graphics/SVG/1.1/DTD/svg11.dtd">
<svg width="100%" height="100%" viewBox="0 0 601 414" version="1.1" xmlns="http://www.w3.org/2000/svg" xmlns:xlink="http://www.w3.org/1999/xlink" xml:space="preserve" xmlns:serif="http://www.serif.com/" style="fill-rule:evenodd;clip-rule:evenodd;stroke-linecap:round;stroke-miterlimit:22.9256;">
    <g id="Layer_x0020_1">
        <ellipse cx="300.241" cy="386.677" rx="287.903" ry="26.472" style="fill:rgb(196,196,196);"/>
        <rect x="401.235" y="69.141" width="37.375" height="42.603" style="fill:white;"/>
        <path d="M415.096,89.259C415.036,88.884 414.188,88.531 413.956,88.441C412.846,88.014 409.793,87.001 409.073,87.241C408.345,87.489 408.755,88.127 408.59,88.441C408.4,88.801 410.241,88.974 410.538,89.259C410.538,89.259 412.81,89.479 414.601,89.904C414.938,89.979 415.155,89.859 415.216,89.559C415.231,89.469 415.111,89.371 415.096,89.259Z" style="fill:rgb(19,34,62);fill-rule:nonzero;"/>
        <path d="M373.403,8.85L339.196,8.85L339.196,0L475.613,0L475.613,344.332L453.353,344.332L441.743,321.54L444.661,321.54L444.661,315.54L442.238,315.54C443.618,315.443 444.511,315.3 444.661,315.097C445.264,314.288 445.073,310.457 444.988,308.739L444.988,308.738L444.983,308.64C444.953,308.07 444.391,307.71 443.843,307.883C443.825,307.888 443.807,307.893 443.788,307.898C443.774,307.903 443.76,307.907 443.745,307.91C443.699,307.922 443.651,307.934 443.603,307.943L442.981,304.59C444.503,304.372 445.643,304.028 445.621,303.57C445.606,303.345 445.486,302.655 445.276,301.582L446.558,301.425C446.768,301.402 446.911,301.215 446.888,301.005C446.865,300.802 446.678,300.652 446.468,300.682L445.118,300.847C442.718,289.14 432.473,244.725 432.473,244.725C432.473,244.725 436.92,213.697 439.403,196.492C441.848,193.282 443.01,188.482 443.521,182.685C443.521,182.667 443.521,182.64 443.521,182.605C443.522,182.568 443.524,182.521 443.528,182.467C443.55,181.725 443.625,179.4 444.143,177.187C444.198,176.943 444.498,176.758 444.794,176.576C445.098,176.389 445.399,176.204 445.433,175.957C446.086,171.51 445.551,166.303 444.977,160.719L444.977,160.719C444.47,155.785 443.933,150.557 444.158,145.297C444.638,134.182 441.09,117.705 433.298,111.112C431.685,109.432 430.561,106.86 430.125,103.83C430.05,103.335 429.638,103.012 429.188,103.005C428.731,101.077 428.505,99.15 428.416,97.23C429.447,97.39 429.867,96.199 430.366,94.782C430.709,93.81 431.089,92.731 431.731,91.912C432.953,90.352 438.436,81.735 434.573,79.612C439.021,74.108 416.813,69.637 415.351,69.705C411.766,69.877 409.208,71.047 408.818,75.18C408.788,75.525 408.773,75.675 408.676,75.757C408.592,75.823 408.452,75.842 408.202,75.878C407.935,75.915 407.542,75.97 406.958,76.117C405.121,76.56 407.468,84.855 407.716,83.91C407.596,84.39 407.498,84.922 407.431,85.567C407.341,86.43 407.296,87.54 407.296,88.785L407.296,89.235C407.299,89.238 407.301,89.24 407.301,89.241L407.301,89.244C407.3,89.245 407.298,89.247 407.296,89.25C407.243,89.437 407.011,90.225 406.718,91.169C406.381,92.249 405.976,93.532 405.675,94.335C405.638,94.439 405.623,94.552 405.623,94.657C405.623,95.092 405.923,95.482 406.38,95.572L407.648,95.812C407.708,96.517 407.783,97.214 407.866,97.889C408.053,99.359 408.278,100.709 408.541,101.797C408.81,102.892 409.095,103.709 409.486,104.182C409.643,104.354 409.838,104.399 410.07,104.452C410.303,104.489 410.588,104.512 410.918,104.512C411.946,104.504 413.438,104.332 414.953,104.069C415.006,104.467 415.028,104.857 415.028,105.254C415.028,106.222 414.901,107.204 414.728,108.299C414.143,108.524 414.008,112.252 414.008,112.252C411.083,115.739 407.026,124.746 406.328,130.844C406.208,131.872 406.088,134.729 406.013,138.591L403.906,142.379L392.011,127.461C391.148,126.104 390.181,125.286 389.131,124.919C389.056,123.959 388.876,122.616 388.471,121.656C387.758,119.992 382.426,115.747 381.331,115.611C380.955,115.566 380.603,115.536 380.273,115.536L378.338,112.694L378.338,8.849L373.403,8.849L373.403,8.85ZM482.213,344.333L482.213,81.601L600,81.601L600,344.333L482.213,344.333ZM398.341,321.539L386.738,344.332L446.618,344.332L435.016,321.539L398.341,321.539ZM434.116,302.183L435.016,302.071C432.563,291.856 419.566,245.963 419.566,245.963C419.566,245.963 419.093,241.381 418.418,234.72L417.736,237.923L417.383,253.516C417.367,254.916 417.346,256.317 417.327,257.718L417.327,257.745C417.268,261.938 417.209,266.128 417.226,270.316C417.218,273.121 417.218,275.918 417.256,278.716C417.263,279.556 417.271,280.396 417.286,281.236L424.006,281.236L424.006,285.548L423.421,285.548L434.131,306.593L435.878,307.606C436.853,307.403 437.543,307.336 437.821,307.426C437.933,307.463 438.053,307.5 438.181,307.538C437.903,306.615 437.664,305.61 437.468,304.74C436.268,304.62 435.421,304.38 435.406,303.991C435.398,303.833 435.324,303.421 435.188,302.806L434.206,302.926C434.003,302.948 433.816,302.806 433.786,302.604C433.763,302.393 433.913,302.206 434.116,302.183L434.116,302.183ZM426.226,308.056L428.783,309.541C423.068,311.333 416.79,313.703 416.79,314.378C416.79,314.896 421.891,315.323 427.733,315.541L409.808,315.541C413.183,315.406 415.665,315.173 415.913,314.843C416.491,314.071 416.445,310.343 416.37,308.783C416.341,308.251 415.553,307.238 415.043,307.396C414.855,307.455 414.66,307.508 414.458,307.561L414.458,304.696C416.055,304.456 417.263,304.028 417.233,303.458C417.21,303.053 417.195,302.626 417.188,302.183L419.505,302.071C419.708,302.063 419.865,301.891 419.858,301.681C419.85,301.471 419.67,301.313 419.468,301.32L417.173,301.433C417.141,299.187 417.213,296.59 417.283,294.058C417.346,291.764 417.408,289.524 417.39,287.648L417.757,287.648L428.063,307.883L426.765,307.133C426.51,306.983 426.18,307.073 426.038,307.328C425.888,307.583 425.978,307.906 426.225,308.055L426.226,308.056ZM407.183,304.177L404.926,308.61C407.348,307.905 409.2,307.493 409.673,307.65L409.702,307.658C409.743,307.67 409.78,307.682 409.823,307.688L409.823,304.875C408.563,304.785 407.536,304.56 407.183,304.178L407.183,304.177ZM388.703,315.539L388.703,321.538L391.613,321.538L380.003,344.331L378.338,344.331L378.338,147.973L374.431,145.386C374.033,145.064 373.688,144.756 373.403,144.449C372.113,143.099 371.933,141.906 372.481,140.541C372.691,140.024 372.998,139.484 373.403,138.906C373.793,138.329 374.266,137.714 374.805,137.039L374.813,137.031C375.443,136.244 376.081,135.569 376.718,135.029C377.16,134.661 377.603,134.354 378.053,134.114L378.104,134.086L378.105,134.086C378.183,134.043 378.258,134.003 378.338,133.971C378.435,133.926 378.533,133.881 378.623,133.843C379.065,133.663 379.508,133.559 379.958,133.521L379.965,133.521C380.963,133.439 381.998,133.694 383.093,134.361C383.43,134.556 383.768,134.796 384.113,135.074L404.026,147.959L405.938,143.796L417.03,119.676C418.185,117.351 420.585,115.844 423.195,115.341C425.176,114.951 427.275,115.154 429.038,116.024C433.125,118.049 436.538,123.734 434.52,127.814C434.52,127.814 415.163,163.004 407.895,164.969C407.31,164.969 406.748,164.916 406.208,164.826C406.568,173.594 407.318,180.576 408.698,180.524C408.083,182.413 408.495,185.143 408.495,185.143L408.728,185.143C408.21,186.193 407.903,187.333 407.82,188.511L406.98,199.784L406.973,199.836C404.303,216.816 401.235,235.401 401.235,235.401L401.648,238.499L404.19,254.061C404.325,255.467 404.462,256.873 404.598,258.278C405.006,262.45 405.412,266.62 405.743,270.794C405.99,273.584 406.223,276.374 406.41,279.164C406.621,281.953 406.823,284.751 406.981,287.541C407.048,288.621 407.078,289.843 407.085,291.141L398.213,308.564L397.148,307.896C396.9,307.739 396.57,307.814 396.413,308.069C396.255,308.316 396.331,308.646 396.585,308.804L397.733,309.524L396.848,311.256C392.565,312.801 388.868,314.354 388.868,314.841C388.868,315.171 391.178,315.404 394.448,315.539L388.703,315.539L388.703,315.539ZM139.386,81.097L224.948,81.097L224.948,344.332L163.56,344.332L163.56,344.333L131.888,344.333L131.888,344.331L125.76,344.331L125.76,344.333L109.35,344.333L109.35,344.331L46.351,344.331L46.351,344.333L41.101,344.333L41.101,344.331L0.001,344.331L0.001,5.174L139.883,5.174L139.883,73.296C139.713,75.923 139.548,78.523 139.386,81.096L139.386,81.097Z" style="fill:white;"/>
        <path d="M30.831,153.641C30.831,155.319 29.47,156.681 27.791,156.681C26.112,156.681 24.751,155.319 24.751,153.641C24.751,151.962 26.112,150.601 27.791,150.601C29.47,150.601 30.831,151.962 30.831,153.641Z" style="fill:rgb(0,160,227);"/>
        <path d="M519.605,64.987C521.283,64.987 522.644,63.627 522.644,61.948C522.644,60.269 521.283,58.908 519.605,58.908C517.926,58.908 516.565,60.269 516.565,61.948C516.565,63.627 517.926,64.987 519.605,64.987Z" style="fill:rgb(0,160,227);"/>
        <path d="M467.516,242.205C467.516,243.884 466.155,245.245 464.476,245.245C462.796,245.245 461.435,243.884 461.435,242.205C461.435,240.527 462.796,239.165 464.476,239.165C466.155,239.165 467.516,240.527 467.516,242.205Z" style="fill:rgb(0,160,227);"/>
        <path d="M38.686,288.486L28.38,288.486L29.415,301.198L37.65,301.198L38.686,288.486Z" style="fill:rgb(0,160,227);"/>
        <path d="M49.928,348.586C48.84,348.586 47.865,348.098 47.213,347.333C46.845,346.913 46.455,345.833 46.455,345.833C46.455,345.833 46.351,334.982 46.351,330.143C46.351,328.17 47.948,326.565 49.928,326.565L52.215,326.565L52.215,313.98L61.276,313.98L61.276,326.565L92.468,326.565L92.468,313.98L101.528,313.98L101.528,326.565L105.766,326.565C107.746,326.565 109.351,328.17 109.351,330.143C109.351,331.14 109.393,332.453 109.44,333.916C109.589,338.534 109.785,344.642 108.851,346.975C108.417,348.061 106.853,348.586 105.765,348.586L49.928,348.586Z" style="fill:rgb(0,160,227);"/>
        <path d="M61.276,260.092L92.468,260.092L92.468,265.83L61.276,265.83L61.276,260.092Z" style="fill:rgb(0,160,227);"/>
        <path d="M61.276,277.703L92.468,277.703L92.468,301.2L101.528,301.2L101.528,239.745L92.468,239.745L92.468,248.22L61.276,248.22L61.276,239.745L52.215,239.745L52.215,301.2L61.276,301.2L61.276,277.703Z" style="fill:rgb(0,160,227);"/>
        <path d="M129.863,301.193L129.863,296.213L125.07,296.213L125.07,291.232L135.413,291.232L135.413,286.26L177.158,286.26L177.158,291.232L166.816,291.232L166.816,296.213L171.608,296.213L171.608,301.193L129.863,301.193Z" style="fill:rgb(0,160,227);"/>
        <path d="M397.733,309.526L396.585,308.806C396.331,308.648 396.256,308.318 396.413,308.071C396.57,307.816 396.9,307.741 397.148,307.898L398.213,308.566L397.733,309.526Z" style="fill:rgb(0,160,227);"/>
        <path d="M403.726,312.645C403.876,312.397 403.8,312.067 403.553,311.91L403.321,311.76L402.833,312.72L402.991,312.817C403.238,312.975 403.568,312.892 403.726,312.645L403.726,312.645Z" style="fill:rgb(0,160,227);"/>
        <path d="M408.218,311.01C408.465,311.168 408.54,311.497 408.383,311.745C408.233,312 407.903,312.075 407.648,311.917L404.303,309.825L404.798,308.865L408.218,311.01Z" style="fill:rgb(0,160,227);"/>
        <path d="M409.823,307.689L409.823,304.877C411.263,304.989 413.018,304.922 414.458,304.697L414.458,307.562C412.846,307.974 411.068,308.064 409.823,307.689Z" style="fill:rgb(0,160,227);"/>
        <path d="M426.226,308.056L428.783,309.541L428.956,309.638L428.888,309.511L428.063,307.883L426.766,307.133C426.51,306.983 426.18,307.073 426.038,307.328C425.888,307.583 425.978,307.906 426.226,308.056Z" style="fill:rgb(0,160,227);"/>
        <path d="M435.878,307.604L434.131,306.592L434.776,307.844L435.031,308.347L437.926,310.027C438.181,310.177 438.511,310.087 438.653,309.832C438.803,309.577 438.72,309.254 438.466,309.104L435.878,307.604Z" style="fill:rgb(0,160,227);"/>
        <path d="M442.981,304.591L443.603,307.943C441.848,308.408 439.635,307.981 438.181,307.538C437.903,306.616 437.663,305.611 437.468,304.741C439.058,304.898 441.263,304.831 442.981,304.591Z" style="fill:rgb(0,160,227);"/>
        <path d="M435.188,302.806L434.206,302.926C434.003,302.948 433.816,302.806 433.786,302.604C433.763,302.393 433.913,302.206 434.116,302.183L435.016,302.071L445.118,300.849L446.468,300.684C446.678,300.654 446.866,300.804 446.888,301.006C446.911,301.216 446.768,301.404 446.558,301.426L445.276,301.584L442.493,301.921L437.033,302.581L435.188,302.806L435.188,302.806Z" style="fill:rgb(0,160,227);"/>
        <path d="M408.548,90.075C408.638,89.776 408.781,89.506 408.961,89.295C409.17,89.041 409.418,88.86 409.696,88.756C409.846,88.704 410.01,88.673 410.176,88.673C410.206,88.673 410.236,88.673 410.265,88.68C410.625,88.695 410.963,88.86 411.233,89.131L411.24,89.131C411.254,89.145 411.269,89.16 411.284,89.175C411.296,89.187 411.307,89.199 411.319,89.211C411.344,89.238 411.368,89.266 411.39,89.295C411.393,89.3 411.396,89.305 411.4,89.309C411.405,89.316 411.41,89.323 411.416,89.329L411.417,89.33C411.426,89.341 411.435,89.352 411.442,89.363C411.743,89.746 411.93,90.285 411.93,90.885C411.93,91.516 411.72,92.086 411.39,92.483C411.068,92.881 410.64,93.106 410.175,93.106C409.822,93.106 409.485,92.971 409.193,92.723C409.181,92.711 409.167,92.699 409.154,92.687L409.143,92.678C409.127,92.663 409.11,92.648 409.095,92.633C409.05,92.589 409.005,92.535 408.96,92.483C408.713,92.19 408.54,91.801 408.458,91.358C408.436,91.208 408.421,91.051 408.421,90.885C408.421,90.6 408.465,90.323 408.548,90.075Z" style="fill:rgb(0,160,227);"/>
        <path d="M408.383,92.955C408.586,93.203 408.833,93.412 409.11,93.57C409.433,93.75 409.793,93.856 410.176,93.856C410.895,93.856 411.533,93.495 411.976,92.955C412.343,92.512 412.583,91.943 412.65,91.305L420.676,90.338L422.79,90.083L423.533,89.993C423.66,89.731 423.84,89.506 424.05,89.311C424.065,89.298 424.08,89.284 424.096,89.271C424.112,89.258 424.127,89.246 424.142,89.234L424.144,89.232C424.16,89.218 424.176,89.205 424.192,89.192L424.209,89.177C424.219,89.169 424.228,89.161 424.237,89.153L423.315,89.266L420.6,89.589L412.658,90.548C412.62,90.128 412.507,89.731 412.335,89.378C412.238,89.176 412.11,88.981 411.975,88.815C411.532,88.276 410.895,87.923 410.175,87.923C409.717,87.923 409.29,88.066 408.93,88.32C408.727,88.448 408.54,88.621 408.383,88.815C408.338,88.868 408.3,88.92 408.27,88.973C408.09,89.214 407.955,89.476 407.85,89.768C407.738,90.114 407.67,90.496 407.67,90.886C407.67,91.358 407.76,91.801 407.933,92.198C408.045,92.476 408.195,92.731 408.383,92.956L408.383,92.955Z" style="fill:rgb(0,160,227);"/>
        <path d="M371.843,360.359L370.95,362.116C461.769,364.95 565.54,372.543 565.351,386.048C565.123,402.312 447.465,406.987 302.055,406.987C109.578,406.987 28.74,392.812 37.136,385.286C52.248,371.741 140.491,364.143 229.883,361.705L229.883,13.784L373.403,13.784L373.403,105.449L359.227,105.449L373.403,125.539L373.403,349.147L371.363,349.147L371.363,355.147L373.403,355.147L373.403,357.299L371.843,360.359L371.843,360.359Z" style="fill:rgb(0,160,227);"/>
        <path d="M466.253,369.676L463.418,364.103L458.858,355.148L462.001,355.148L462.001,349.148L455.806,349.148L454.883,347.332L453.353,344.332L441.743,321.54L444.661,321.54L444.661,315.54L438.691,315.54L435.031,308.347L434.776,307.845L434.131,306.592L423.421,285.547L409.936,285.547L407.086,291.142L398.213,308.565L397.733,309.525L396.848,311.257L394.666,315.54L388.703,315.54L388.703,321.54L391.613,321.54L380.003,344.332L378.473,347.332L378.338,347.603L377.551,349.148L371.364,349.148L371.364,355.148L374.499,355.148L373.404,357.3L371.844,360.36L369.084,365.791L367.914,368.086L366.939,369.998L365.394,373.02L364.914,373.98L360.256,383.123L366.984,383.123L371.769,373.725L372.129,373.02L373.539,370.26L375.736,365.933L378.339,360.825L378.496,360.517L381.234,355.148L452.124,355.148L456.474,363.683L459.309,369.248L466.374,383.123L473.101,383.123L466.254,369.676L466.253,369.676ZM452.993,352.291C452.993,351.631 453.533,351.097 454.193,351.097C454.853,351.097 455.385,351.631 455.385,352.291C455.385,352.95 454.853,353.49 454.193,353.49C453.533,353.49 452.993,352.95 452.993,352.291ZM402.833,312.72L403.321,311.76L404.303,309.825L404.798,308.865L404.926,308.61L407.183,304.177L407.963,302.648L408.353,301.875L415.598,287.648L417.758,287.648L428.063,307.882L428.888,309.509L428.956,309.637L431.963,315.54L401.393,315.54L402.833,312.72ZM380.363,352.291C380.363,352.95 379.831,353.49 379.171,353.49C378.841,353.49 378.548,353.363 378.338,353.152C378.113,352.936 377.971,352.627 377.971,352.291C377.971,351.953 378.113,351.652 378.338,351.436C378.548,351.225 378.841,351.097 379.171,351.097C379.831,351.097 380.363,351.631 380.363,352.291ZM384.286,349.148L385.208,347.332L386.738,344.332L398.34,321.54L435.015,321.54L446.618,344.332L447.383,345.832L448.147,347.332L449.07,349.148L384.285,349.148L384.286,349.148ZM468.623,387.547L468.856,387.427L468.563,387.427L468.623,387.547ZM364.793,387.427L364.733,387.547L364.501,387.427L364.793,387.427Z" style="fill:rgb(201,201,201);"/>
        <path d="M379.83,133.291L390.105,129.976L388.755,132.533L383.092,134.363C381.997,133.696 380.962,133.441 379.965,133.523L379.957,133.523C379.912,133.441 379.867,133.366 379.829,133.291L379.83,133.291Z" style="fill:rgb(142,142,142);fill-rule:nonzero;"/>
        <path d="M379.958,133.522C379.508,133.559 379.066,133.665 378.623,133.844L378.758,133.634L379.831,133.289C379.868,133.364 379.913,133.439 379.958,133.522L379.958,133.522Z" style="fill:rgb(142,142,142);fill-rule:nonzero;"/>
        <path d="M367.913,368.086L366.938,369.998L365.393,373.02L224.948,373.02L224.948,347.333L170.078,347.333L170.078,387.428L163.561,387.428L163.561,347.333L108.488,347.333C108.848,346.913 109.118,346.395 109.246,345.833C109.313,345.563 109.35,345.285 109.35,345L109.35,344.333L125.76,344.333L125.76,313.98L41.1,313.98L41.1,344.333L46.35,344.333L46.35,345C46.35,345.285 46.38,345.562 46.455,345.833C46.583,346.395 46.845,346.913 47.213,347.333L41.1,347.333L41.1,387.428L34.59,387.428L34.59,347.333L-0,347.333L-0,344.333L34.59,344.333L34.59,313.98L24.353,313.98L24.353,301.2L125.76,301.2L125.76,296.213L129.863,296.213L129.863,301.193L131.887,301.193L131.887,301.2L180.315,301.2L180.315,313.98L170.078,313.98L170.078,344.333L224.948,344.333L224.948,8.85L378.338,8.85L378.338,112.695L373.403,105.451L373.403,13.785L229.883,13.785L229.883,368.086L367.913,368.086ZM131.888,344.333L163.561,344.333L163.561,313.981L131.888,313.981L131.888,344.333ZM405.938,143.796L417.031,119.677C418.186,117.352 420.586,115.844 423.196,115.341C425.176,114.952 427.276,115.154 429.038,116.025C433.126,118.049 436.538,123.734 434.521,127.814C434.521,127.814 415.163,163.004 407.896,164.969C407.31,164.969 406.748,164.917 406.208,164.827C406.568,173.594 407.318,180.577 408.698,180.524C408.083,182.414 408.496,185.143 408.496,185.143L408.728,185.143C408.832,185.143 411.715,190.695 411.773,191.671C412.582,205.247 443.635,183.011 443.635,183.011C443.635,183.011 443.774,178.765 444.143,177.187C444.198,176.941 444.498,176.758 444.795,176.574C445.098,176.388 445.399,176.202 445.433,175.956C446.086,171.508 445.551,166.302 444.977,160.719L444.977,160.718C444.47,155.784 443.933,150.555 444.158,145.296C444.638,134.182 441.09,117.704 433.298,111.111C431.685,109.432 430.561,106.858 430.125,103.829C430.05,103.334 429.638,103.011 429.188,103.004C428.731,101.076 428.505,99.149 428.416,97.229C429.447,97.389 429.867,96.197 430.366,94.781C430.709,93.808 431.089,92.73 431.731,91.911C432.953,90.352 438.436,81.733 434.573,79.611C439.021,74.107 416.813,69.636 415.351,69.704C411.766,69.876 409.208,71.046 408.818,75.178C408.788,75.524 408.773,75.674 408.676,75.757C408.592,75.822 408.452,75.841 408.202,75.877C407.935,75.914 407.542,75.969 406.958,76.116C405.121,76.559 407.468,84.854 407.716,83.909C407.596,84.389 407.498,84.921 407.431,85.566C407.341,86.428 407.296,87.539 407.296,88.784L407.296,89.233C407.299,89.237 407.302,89.239 407.302,89.241C407.302,89.243 407.299,89.244 407.296,89.249C407.243,89.437 407.011,90.223 406.718,91.169C406.381,92.249 405.976,93.531 405.675,94.334C405.638,94.438 405.623,94.551 405.623,94.656C405.623,95.091 405.923,95.481 406.38,95.57L407.648,95.811C407.708,96.516 407.783,97.213 407.866,97.888C408.053,99.358 408.278,100.709 408.541,101.795C408.81,102.891 409.095,103.708 409.486,104.181C409.643,104.354 409.838,104.399 410.07,104.451C410.303,104.489 410.588,104.51 410.918,104.51C411.946,104.504 413.438,104.33 414.953,104.069C415.006,104.465 415.028,104.856 415.028,105.253C415.028,106.221 414.901,107.204 414.728,108.298C414.143,108.523 414.008,112.25 414.008,112.25C411.083,115.738 407.026,124.746 406.328,130.843C406.208,131.871 406.088,134.728 406.013,138.59L403.906,142.378L392.011,127.461C391.148,126.103 390.181,125.285 389.131,124.918C389.056,123.958 388.876,122.615 388.471,121.656C387.758,119.99 382.426,115.746 381.331,115.611C380.955,115.566 380.603,115.535 380.273,115.535L382.688,119.084C380.918,119.541 378.721,120.328 379.043,121.318C379.448,122.57 384.166,123.891 386.325,124.424L386.588,124.806L388.005,126.891L390.105,129.973L388.755,132.531L383.093,134.361C383.43,134.556 383.768,134.795 384.113,135.073L404.026,147.959L405.938,143.795L405.938,143.796ZM409.689,103.564C409.291,101.936 408.361,97.768 408.151,95.384L406.478,95.032C406.291,95.001 406.171,94.837 406.171,94.657L406.193,94.521C407.758,91.116 407.873,89.527 408.05,87.111C408.123,86.099 408.207,84.941 408.413,83.444C408.806,83.462 409.274,83.676 409.595,83.823C409.666,83.856 409.731,83.886 409.786,83.909C411.822,84.746 413.594,84.478 415.621,84.173C416.463,84.046 417.348,83.912 418.314,83.848C418.838,83.811 420.031,83.803 420.691,84.209C420.749,84.244 420.716,84.87 420.671,85.736L420.671,85.741C420.611,86.873 420.529,88.414 420.601,89.587L423.316,89.264C423.389,89.147 423.463,89.041 423.533,88.94L423.579,88.874C424.434,87.644 426.256,87.411 427.276,88.514C427.666,88.942 427.914,89.511 427.906,90.171C427.881,91.558 427.29,92.73 426.886,93.533L426.885,93.533L426.885,93.534C426.671,93.96 426.508,94.282 426.511,94.477C426.511,94.642 426.608,94.911 426.766,95.219C426.961,95.616 427.253,96.073 427.553,96.456C427.651,96.591 427.756,96.711 427.853,96.817C427.92,98.901 428.153,101.017 428.663,103.139L415.313,108.081C415.426,107.354 415.508,106.671 415.546,105.989C416.976,105.839 418.005,105.359 419.162,104.82C419.68,104.579 420.224,104.325 420.841,104.084C421.298,103.903 421.688,103.612 421.853,103.199C421.905,103.057 421.928,102.914 421.928,102.749C421.898,100.446 422.01,99.524 422.228,98.602L422.228,98.587C422.385,97.904 422.303,97.559 422.265,97.462C422.265,97.439 422.258,97.432 422.258,97.432L422.25,97.439C422.228,97.341 422.16,97.267 422.062,97.244C421.912,97.214 421.763,97.296 421.725,97.446L421.26,99.307L420.938,100.619L420.6,101.97C420.496,102.044 415.936,103.199 415.936,103.199C415.936,103.199 411.084,104.182 409.689,103.564L409.689,103.564ZM482.213,344.333L482.213,81.601L475.613,81.601L475.613,344.333L453.353,344.333L454.118,345.833L454.883,347.333L600.001,347.333L600.001,344.333L482.213,344.333ZM466.373,383.121L462.121,383.121L462.121,387.426L476.768,387.426L476.768,383.121L466.373,383.121L466.373,383.121ZM452.993,352.289C452.993,351.629 453.533,351.097 454.193,351.097C454.853,351.097 455.386,351.629 455.386,352.289C455.386,352.949 454.853,353.489 454.193,353.489C453.533,353.489 452.993,352.949 452.993,352.289ZM380.302,350.7C379.642,350.7 379.102,351.232 379.102,351.892C379.102,352.552 379.642,353.092 380.302,353.092C380.962,353.092 381.494,352.552 381.494,351.892C381.494,351.232 380.962,350.7 380.302,350.7ZM386.738,344.332L446.618,344.332L447.383,345.832L448.148,347.332L385.208,347.332L385.973,345.832L386.738,344.332ZM445.621,303.569C445.606,303.344 445.486,302.654 445.276,301.582L442.493,301.919L437.033,302.579L435.188,302.804C435.323,303.419 435.398,303.832 435.406,303.989C435.421,304.379 436.268,304.619 437.468,304.739C439.058,304.896 441.263,304.829 442.981,304.589C444.503,304.371 445.643,304.026 445.621,303.569L445.621,303.569ZM432.473,244.723C432.473,244.723 442.718,289.138 445.118,300.846L435.016,302.068C432.563,291.853 419.566,245.961 419.566,245.961C419.566,245.961 419.093,241.378 418.418,234.718L420.908,222.965C420.908,222.965 427.036,211.566 432.683,200.615C435.608,200.061 437.791,198.628 439.403,196.49C436.921,213.696 432.473,244.723 432.473,244.723L432.473,244.723ZM437.926,310.027L435.031,308.347L438.69,315.54L442.238,315.54C443.618,315.443 444.511,315.3 444.661,315.097C445.264,314.288 445.074,310.457 444.988,308.739L444.988,308.738L444.983,308.64C444.953,308.07 444.391,307.71 443.843,307.883C443.768,307.905 443.686,307.928 443.603,307.943C441.848,308.408 439.635,307.98 438.181,307.538C438.068,307.504 437.961,307.471 437.86,307.438L437.821,307.425C437.543,307.335 436.853,307.403 435.878,307.605L438.466,309.105C438.72,309.255 438.803,309.578 438.653,309.833C438.51,310.088 438.181,310.178 437.926,310.028L437.926,310.027ZM431.963,315.539L427.733,315.539C421.891,315.321 416.791,314.894 416.791,314.376C416.791,313.701 423.068,311.332 428.783,309.539L428.956,309.636L431.963,315.539ZM424.856,89.641C424.45,89.956 424.067,90.417 423.842,90.747C423.725,90.918 423.49,90.962 423.321,90.845C423.149,90.728 423.106,90.494 423.223,90.324C423.476,89.954 423.909,89.427 424.397,89.049C424.64,88.86 424.917,88.691 425.209,88.611C425.509,88.528 425.842,88.534 426.148,88.722C426.806,89.127 426.993,89.862 426.993,90.575C426.993,91.294 426.805,92.097 426.595,92.797C426.164,94.226 425.331,95.309 424.097,95.425C423.79,95.454 423.528,95.357 423.328,95.176C423.14,95.006 423.023,94.779 422.948,94.562C422.799,94.13 422.778,93.622 422.799,93.29C422.811,93.083 422.989,92.925 423.196,92.938C423.403,92.951 423.56,93.129 423.547,93.335C423.53,93.614 423.552,94.013 423.658,94.318C423.709,94.469 423.772,94.566 423.831,94.619C423.878,94.662 423.933,94.687 424.026,94.678C424.796,94.606 425.475,93.911 425.877,92.58C426.082,91.9 426.244,91.182 426.244,90.574C426.244,89.959 426.081,89.561 425.755,89.361C425.669,89.308 425.562,89.291 425.409,89.333C425.249,89.378 425.06,89.483 424.857,89.641L424.856,89.641ZM424.006,285.547L409.35,285.547L409.35,281.235L424.005,281.235L424.005,285.547L424.006,285.547ZM422.318,91.004C422.438,90.719 422.603,90.404 422.791,90.081L420.676,90.337C420.721,90.606 420.781,90.839 420.864,91.004C421.044,91.379 422.101,91.529 422.318,91.004ZM419.858,301.678C419.866,301.888 419.708,302.061 419.506,302.068L417.188,302.181L414.241,302.331L409.823,302.548L407.963,302.646L408.353,301.873L417.173,301.431L419.468,301.319C419.671,301.311 419.851,301.469 419.858,301.679L419.858,301.678ZM411.991,98.347C411.848,98.302 411.698,98.384 411.653,98.535C411.608,98.715 411.421,98.932 411.151,99.089C410.881,99.254 410.543,99.36 410.213,99.36C409.981,99.36 409.756,99.307 409.569,99.194C409.433,99.119 409.268,99.164 409.193,99.292C409.118,99.427 409.163,99.592 409.29,99.667C409.582,99.839 409.898,99.907 410.213,99.907C410.655,99.907 411.083,99.772 411.436,99.562C411.78,99.344 412.073,99.052 412.178,98.684C412.223,98.534 412.133,98.384 411.991,98.347L411.991,98.347ZM402.833,312.721L402.991,312.819C403.238,312.976 403.569,312.893 403.726,312.646C403.876,312.399 403.801,312.068 403.553,311.911L403.321,311.761L404.303,309.826L407.648,311.918C407.903,312.076 408.233,312.001 408.383,311.746C408.541,311.498 408.466,311.168 408.218,311.011L404.798,308.866L404.926,308.611C407.348,307.906 409.201,307.493 409.673,307.651C409.71,307.662 409.743,307.672 409.777,307.68C409.792,307.683 409.807,307.686 409.823,307.688C411.068,308.064 412.846,307.974 414.458,307.561C414.661,307.508 414.856,307.456 415.043,307.396C415.553,307.238 416.341,308.251 416.371,308.783C416.446,310.343 416.491,314.071 415.913,314.844C415.666,315.173 413.183,315.406 409.808,315.541L401.393,315.541L402.833,312.721L402.833,312.721ZM394.666,315.541L394.448,315.541C391.179,315.406 388.868,315.174 388.868,314.844C388.868,314.356 392.566,312.804 396.848,311.259L394.666,315.541L394.666,315.541ZM379.583,126.382C379.028,125.759 378.788,125.721 378.338,126.141C378.276,126.199 378.206,126.271 378.128,126.35C378.086,126.393 378.041,126.438 377.993,126.487C377.954,126.528 377.913,126.573 377.87,126.619L377.87,126.62L377.869,126.62C377.47,127.051 376.912,127.654 376.066,128.392C375.893,128.542 375.705,128.699 375.511,128.857L375.503,128.864C375.499,128.868 375.497,128.87 375.495,128.871C375.494,128.871 375.493,128.872 375.491,128.872L375.488,128.872C374.888,129.359 374.168,129.689 373.403,129.914C373.178,129.982 372.946,130.042 372.706,130.087C370.943,130.447 369.158,130.207 367.576,129.502C366.016,128.827 364.643,127.694 363.646,126.247L363.376,125.857C363.376,125.857 362.791,129.134 362.641,132.224C362.566,133.634 364.261,136.829 366.924,138.494C368.768,139.649 370.974,140.249 372.481,140.542C372.691,140.024 372.999,139.484 373.404,138.907C373.794,138.329 374.266,137.714 374.806,137.04L374.814,137.032C375.444,136.245 376.081,135.57 376.718,135.029C377.161,134.662 377.603,134.355 378.054,134.114L378.105,134.087C378.126,134.075 378.148,134.063 378.17,134.051C378.192,134.04 378.214,134.028 378.236,134.017C378.27,134.001 378.304,133.985 378.338,133.972C378.371,133.956 378.404,133.941 378.437,133.926C378.501,133.897 378.564,133.87 378.623,133.845L378.758,133.635L378.766,133.627L378.766,133.612C378.766,133.609 378.766,133.607 378.768,133.605C378.768,133.603 378.769,133.603 378.77,133.601C378.771,133.599 378.772,133.598 378.773,133.597C378.826,133.432 379.021,132.818 379.238,132L379.238,131.992C379.343,131.617 379.448,131.197 379.546,130.755C379.681,130.132 379.808,129.472 379.875,128.85C379.958,128.16 379.973,127.515 379.868,127.028C379.816,126.758 379.725,126.54 379.583,126.383L379.583,126.382ZM372.128,373.021L373.538,370.261L375.736,365.934L378.338,360.826L378.338,373.021L372.128,373.021L372.128,373.021ZM378.338,347.604L378.338,347.334L378.473,347.334L379.238,345.834L380.003,344.334L378.338,344.334L378.338,147.976L374.431,145.389C374.033,145.066 373.688,144.759 373.403,144.451L373.403,349.149L377.55,349.149L378.338,347.604L378.338,347.604ZM374.498,355.148L373.403,357.3L373.403,355.148L374.498,355.148ZM360.256,383.121L356.588,383.121L356.588,387.426L371.243,387.426L371.243,383.121L360.255,383.121L360.256,383.121ZM361.936,244.418L234.023,244.418L234.023,247.418L361.936,247.418L361.936,244.418ZM234.023,183.524L361.936,183.524L361.936,186.524L234.023,186.524L234.023,183.524ZM361.936,140.053L234.023,140.053L234.023,143.053L361.936,143.053L361.936,140.053ZM234.023,74.857L361.936,74.857L361.936,77.856L234.023,77.856L234.023,74.857ZM359.596,38.437L350.993,38.437L350.993,73.29L359.596,73.29L359.596,38.437ZM344.513,153.384L353.115,153.384L353.115,179.611L344.513,179.611L344.513,153.384ZM349.538,38.437L340.936,38.437L340.936,73.29L349.538,73.29L349.538,38.437ZM342.833,153.384L342.833,179.611L334.23,179.611L334.23,153.384L342.833,153.384ZM339.488,73.29L339.488,38.437L330.885,38.437L330.885,73.29L339.488,73.29ZM320.835,38.437L329.43,38.437L329.43,73.29L320.835,73.29L320.835,38.437ZM328.71,310.65L328.71,305.385L277.71,305.385L277.71,310.65L273.225,310.65L273.225,315.907L324.225,315.907L324.225,310.65L328.71,310.65ZM279.893,170.548L320.04,170.548L320.04,179.143L279.893,179.143L279.893,170.548ZM310.658,233.01L265.62,233.01L265.62,241.612L310.658,241.612L310.658,233.01ZM290.67,38.437L299.273,38.437L299.273,73.29L290.67,73.29L290.67,38.437ZM289.223,38.437L280.621,38.437L280.621,73.29L289.223,73.29L289.223,38.437ZM247.605,196.567L256.2,196.567L256.2,241.612L247.605,241.612L247.605,196.567ZM246.788,196.567L238.185,196.567L238.185,241.612L246.788,241.612L246.788,196.567ZM234.023,321.24L234.023,318.24L361.936,318.24L361.936,321.24L234.023,321.24ZM131.888,81.097L139.883,81.097L139.883,73.297L125.76,73.297L125.76,291.232L131.888,291.232L131.888,81.097ZM95.04,387.428L95.04,348.585L98.948,348.585L98.948,387.428L95.04,387.428ZM54.788,348.585L54.788,387.428L58.695,387.428L58.695,348.585L54.788,348.585ZM27.503,284.932C27.338,284.932 27.195,284.826 27.143,284.669L25.77,280.319L26.963,279.989L26.858,279.614L29.115,278.977L31.163,286.259L31.725,286.259L31.725,278.541L32.017,278.541L32.017,277.289L32.933,277.289L32.933,278.541L33.232,278.541L33.232,286.259L34.162,286.259L34.867,280.004L35.16,280.041L35.302,278.789L36.21,278.894L36.067,280.138L36.367,280.176L35.677,286.258L36.585,286.258L37.162,281.136L37.462,281.173L37.605,279.921L38.505,280.025L38.362,281.27L38.662,281.308L38.1,286.258L39.915,286.258L39.915,288.485L27.15,288.485L27.15,286.258L28.725,286.258L27.165,280.708L26.715,280.835L27.855,284.443C27.922,284.638 27.81,284.848 27.615,284.908L27.502,284.93L27.503,284.932Z" style="fill:rgb(19,34,62);"/>
        <path d="M35.7,74.063L25.98,43.973L25.98,74.153L19.207,74.153L19.207,41.971L25.98,41.971L25.98,43.388L32.25,41.356L42.142,71.986L35.7,74.063L35.7,74.063ZM113.902,41.971L120.675,41.971L120.675,74.153L113.902,74.153L113.902,41.971ZM248.28,103.643L239.677,103.643L239.677,138.496L248.28,138.496L248.28,103.643ZM258.338,103.643L249.735,103.643L249.735,138.496L258.338,138.496L258.338,103.643ZM308.602,103.643L299.999,103.643L299.999,138.496L308.602,138.496L308.602,103.643ZM310.049,103.643L318.652,103.643L318.652,138.496L310.049,138.496L310.049,103.643ZM320.107,103.643L328.709,103.643L328.709,138.496L320.107,138.496L320.107,103.643ZM359.452,105.524L372.825,125.001L373.402,125.834L375.487,128.872C374.887,129.359 374.167,129.689 373.402,129.914C373.177,129.982 372.945,130.042 372.704,130.087C370.942,130.447 369.157,130.207 367.575,129.501C366.015,128.826 364.642,127.694 363.645,126.247L363.375,125.856L352.612,110.226L359.452,105.524ZM581.272,169.846L581.272,197.281L574.499,197.281L574.499,172.621L566.039,197.281L559.627,195.084L568.537,169.133L574.499,171.181L574.499,169.846L581.272,169.846ZM570.539,251.086L577.312,251.086L577.312,278.528L570.539,278.528L570.539,251.086ZM568.642,251.086L561.877,251.086L561.877,278.528L568.642,278.528L568.642,251.086ZM528.802,190.509L556.245,190.509L556.245,197.281L528.802,197.281L528.802,190.509ZM540.854,251.086L534.082,251.086L534.082,278.528L540.854,278.528L540.854,251.086ZM525.42,251.086L532.192,251.086L532.192,278.528L525.42,278.528L525.42,251.086ZM519.69,271.755L492.247,271.755L492.247,278.527L519.69,278.527L519.69,271.755ZM357.412,281.053L348.809,281.053L348.809,315.906L357.412,315.906L357.412,281.053ZM344.512,206.76L353.114,206.76L353.114,241.612L344.512,241.612L344.512,206.76ZM343.057,241.612L343.057,206.76L334.462,206.76L334.462,241.612L343.057,241.612ZM338.76,315.906L338.76,281.053L347.362,281.053L347.362,315.906L338.76,315.906ZM333.007,206.76L324.405,206.76L324.405,241.612L333.007,241.612L333.007,206.76ZM322.957,206.76L314.355,206.76L314.355,241.612L322.957,241.612L322.957,206.76ZM261.885,224.191L306.922,224.191L306.922,232.794L261.885,232.794L261.885,224.191ZM298.545,103.643L289.95,103.643L289.95,138.496L298.545,138.496L298.545,103.643ZM279.892,103.643L288.495,103.643L288.495,138.496L279.892,138.496L279.892,103.643ZM244.275,267.653L249.532,267.653L249.532,315.908L244.275,315.908L244.275,267.653ZM238.125,267.653L243.382,267.653L243.382,315.908L238.125,315.908L238.125,267.653ZM118.542,124.498L111.769,124.498L111.769,156.681L118.542,156.681L118.542,124.498ZM108.019,124.498L101.247,124.498L101.247,156.681L108.019,156.681L108.019,124.498ZM76.372,67.38L108.555,67.38L108.555,74.152L76.372,74.152L76.372,67.38ZM98.119,149.835L65.93,149.835L65.93,156.607L98.119,156.607L98.119,149.835ZM26.392,206.76L26.392,210.052L32.422,207.082L46.65,235.95L40.575,238.942L26.392,210.165L26.392,238.942L19.62,238.942L19.62,206.76L26.392,206.76ZM62.179,124.498L55.406,124.498L55.406,156.681L62.179,156.681L62.179,124.498Z" style="fill:white;"/>
        <path d="M413.694,185.085C413.697,185.095 413.698,185.103 413.7,185.111C413.701,185.119 413.701,185.125 413.701,185.134L413.701,185.167C413.701,185.167 413.698,185.181 413.697,185.211C413.695,185.235 413.694,185.27 413.694,185.317C413.686,185.422 413.686,185.572 413.686,185.76C413.686,186.532 413.761,187.972 414.225,189.382C414.683,190.792 415.524,192.157 417.024,192.884C417.159,192.952 417.211,193.11 417.151,193.245C417.083,193.372 416.926,193.432 416.79,193.365C415.305,192.645 414.42,191.37 413.903,190.057C413.829,189.892 413.768,189.72 413.715,189.547C413.228,188.055 413.153,186.57 413.145,185.76C413.145,185.41 413.163,185.188 413.167,185.134L413.168,185.122C413.168,185.114 413.168,185.099 413.176,185.092C412.825,185.102 412.487,185.105 412.167,185.108C411.133,185.118 411.028,185.112 409.231,185.144L408.728,185.144C408.211,186.195 407.903,187.335 407.82,188.512L406.981,199.785L406.973,199.837C404.303,216.817 401.235,235.402 401.235,235.402L401.649,238.5L404.19,254.062C404.325,255.468 404.462,256.873 404.599,258.279C405.006,262.45 405.412,266.621 405.743,270.795C405.99,273.585 406.223,276.375 406.41,279.165C406.621,281.955 406.823,284.752 406.981,287.542C407.048,288.622 407.079,289.845 407.086,291.142L409.936,285.547L409.35,285.547L409.35,281.235L417.285,281.235C417.27,280.395 417.263,279.555 417.256,278.715C417.218,275.917 417.218,273.12 417.226,270.315C417.209,266.119 417.268,261.919 417.327,257.719L417.327,257.716C417.347,256.316 417.366,254.915 417.383,253.514L417.735,237.922L418.419,234.72L420.909,222.967C420.909,222.967 427.035,211.567 432.683,200.617C435.608,200.062 437.79,198.629 439.403,196.492C441.846,193.285 443.472,182.967 443.472,182.967C443.472,182.967 441.228,183.459 438.477,183.92C431.117,184.606 418.264,185.047 413.694,185.084L413.694,185.085ZM414.24,302.334L409.823,302.551L407.963,302.649L407.183,304.179C407.536,304.562 408.563,304.787 409.823,304.876C411.263,304.989 413.018,304.921 414.458,304.696C416.055,304.456 417.263,304.029 417.233,303.459C417.211,303.054 417.196,302.626 417.188,302.184L414.24,302.334ZM417.173,301.435L408.353,301.877L415.598,287.65L417.391,287.65C417.408,289.525 417.346,291.765 417.283,294.06C417.213,296.591 417.141,299.188 417.173,301.435L417.173,301.435Z" style="fill:rgb(153,153,153);"/>
        <path d="M365.393,373.019L224.948,373.019L224.948,370.327C215.048,370.792 209.258,371.355 209.258,371.955C209.258,372.644 216.975,373.29 229.846,373.792C246.488,374.437 271.733,374.849 300.001,374.849C325.441,374.849 348.436,374.512 364.913,373.98L365.393,373.019ZM378.339,370.491C386.221,370.926 390.744,371.421 390.744,371.953C390.744,372.621 383.664,373.236 371.769,373.723L372.129,373.018L378.339,373.018L378.339,370.491L378.339,370.491ZM418.253,390.331C371.618,390.331 333.818,389.033 333.818,387.428C333.818,385.658 502.688,385.804 502.688,387.428C502.688,389.033 464.888,390.331 418.253,390.331ZM170.078,387.428L170.078,383.566C182.679,384.503 190.283,385.718 190.283,387.053C190.283,389.925 48.503,403.1 34.037,387.428C34.014,387.401 35.454,387.414 36.839,387.427C38.121,387.438 39.356,387.449 39.338,387.428L41.101,387.428L41.101,383.603C60.509,382.096 76.697,381.668 105.848,381.668C128.169,381.668 148.463,382.223 163.561,383.131L163.561,387.428L170.078,387.428L170.078,387.428Z" style="fill:rgb(19,34,62);fill-opacity:0.3;"/>
        <path d="M193.214,47.173C193.014,47.118 192.808,47.236 192.753,47.435C192.699,47.635 192.816,47.842 193.017,47.895C194.475,48.295 195.905,48.711 197.32,49.155C197.518,49.216 197.728,49.107 197.79,48.909C197.852,48.712 197.742,48.501 197.544,48.44C196.12,47.993 194.68,47.573 193.214,47.173ZM484.98,55.74C485.188,55.734 485.35,55.561 485.344,55.354C485.338,55.146 485.165,54.984 484.958,54.99C482.068,55.077 479.178,55.319 476.313,55.735C476.109,55.764 475.966,55.955 475.996,56.16C476.026,56.364 476.216,56.507 476.421,56.477C479.256,56.067 482.118,55.826 484.981,55.74L484.98,55.74ZM493.629,55.181C493.422,55.166 493.242,55.322 493.227,55.528C493.212,55.735 493.368,55.914 493.575,55.929C496.453,56.139 499.307,56.489 502.112,56.964C502.316,56.999 502.51,56.862 502.544,56.657C502.578,56.453 502.441,56.259 502.237,56.225C499.41,55.746 496.532,55.392 493.629,55.182L493.629,55.181ZM468.018,58.235C468.218,58.18 468.334,57.973 468.279,57.773C468.223,57.574 468.017,57.458 467.817,57.513C465.031,58.287 462.295,59.25 459.633,60.418C459.444,60.501 459.357,60.722 459.441,60.911C459.524,61.101 459.745,61.187 459.934,61.105C462.562,59.952 465.265,59.001 468.018,58.235ZM510.709,58.064C510.509,58.012 510.303,58.13 510.25,58.33C510.197,58.53 510.316,58.736 510.517,58.789C511.914,59.161 513.292,59.562 514.646,59.99C514.843,60.052 515.054,59.943 515.116,59.746C515.178,59.548 515.069,59.337 514.872,59.275C513.507,58.843 512.118,58.439 510.709,58.064ZM452.37,65.137C452.545,65.026 452.596,64.794 452.485,64.619C452.374,64.445 452.142,64.393 451.967,64.505C450.753,65.28 449.562,66.108 448.399,66.99C448.233,67.114 448.201,67.35 448.326,67.515C448.451,67.68 448.687,67.713 448.851,67.587C449.999,66.717 451.174,65.902 452.371,65.137L452.37,65.137ZM523.533,62.512C523.343,62.43 523.122,62.517 523.039,62.706C522.956,62.896 523.043,63.117 523.233,63.2C524.629,63.807 525.981,64.443 527.286,65.103C527.298,65.109 527.31,65.114 527.321,65.118C565.914,84.651 571.526,129.613 573.041,141.792C573.66,146.763 574.964,159.979 573.015,175.401C573.015,175.404 573.014,175.409 573.014,175.413C572.829,176.87 572.617,178.346 572.371,179.838C572.337,180.043 572.475,180.235 572.679,180.269C572.884,180.303 573.077,180.165 573.111,179.96C573.358,178.455 573.573,176.966 573.759,175.496C573.759,175.492 573.76,175.488 573.76,175.484C575.719,159.98 574.408,146.7 573.785,141.699L573.783,141.681C572.269,129.511 566.625,84.144 527.625,64.432L527.616,64.427C527.607,64.423 527.598,64.419 527.589,64.417C526.282,63.756 524.927,63.121 523.533,62.512L523.533,62.512ZM445.348,69.98C445.487,70.134 445.475,70.371 445.321,70.51C444.228,71.497 443.165,72.54 442.134,73.642C441.992,73.793 441.754,73.8 441.604,73.659C441.452,73.518 441.444,73.28 441.586,73.129C442.632,72.012 443.71,70.955 444.818,69.954C444.972,69.814 445.21,69.826 445.348,69.98ZM449.588,171.349C449.44,171.204 449.202,171.208 449.058,171.358C448.914,171.506 448.918,171.744 449.067,171.888C450.154,172.938 451.273,173.949 452.42,174.921C452.578,175.056 452.815,175.036 452.948,174.878C453.082,174.72 453.063,174.483 452.905,174.349C451.769,173.388 450.664,172.387 449.588,171.349ZM459.85,179.52C459.676,179.407 459.444,179.455 459.331,179.628C459.218,179.802 459.267,180.035 459.441,180.147C460.587,180.894 461.755,181.608 462.942,182.288C463.122,182.39 463.351,182.328 463.454,182.148C463.557,181.969 463.495,181.739 463.315,181.637C462.14,180.964 460.984,180.258 459.85,179.519L459.85,179.52ZM470.579,185.265C470.389,185.183 470.169,185.271 470.086,185.46C470.004,185.651 470.092,185.872 470.283,185.954C472.788,187.034 475.358,187.978 477.981,188.784C478.179,188.844 478.39,188.733 478.45,188.535C478.511,188.337 478.4,188.127 478.202,188.066C475.604,187.268 473.059,186.334 470.579,185.265ZM522.533,189.554C522.734,189.502 522.855,189.298 522.803,189.097C522.752,188.897 522.548,188.776 522.347,188.827C521.029,189.166 519.708,189.472 518.387,189.745C518.184,189.787 518.053,189.985 518.095,190.188C518.137,190.391 518.336,190.521 518.538,190.479C519.872,190.203 521.204,189.895 522.534,189.554L522.533,189.554ZM486.083,190.035C485.879,189.996 485.682,190.128 485.643,190.332C485.603,190.535 485.735,190.731 485.939,190.771C488.61,191.291 491.321,191.675 494.06,191.921C494.266,191.939 494.448,191.787 494.466,191.58C494.485,191.374 494.333,191.192 494.126,191.174C491.413,190.93 488.728,190.55 486.082,190.034L486.083,190.035ZM510.439,191.755C510.645,191.733 510.794,191.548 510.771,191.342C510.749,191.137 510.563,190.987 510.358,191.01C507.644,191.304 504.937,191.465 502.245,191.493C502.038,191.495 501.872,191.665 501.874,191.872C501.877,192.08 502.046,192.245 502.253,192.243C504.969,192.215 507.701,192.053 510.439,191.756L510.439,191.755ZM531.254,186.425C531.325,186.619 531.225,186.834 531.031,186.906C529.61,187.429 528.182,187.913 526.75,188.358C526.552,188.42 526.342,188.309 526.28,188.111C526.219,187.914 526.33,187.704 526.527,187.642C527.947,187.2 529.363,186.721 530.772,186.202C530.967,186.131 531.182,186.23 531.254,186.425ZM205.539,51.723C205.618,51.532 205.838,51.442 206.029,51.522C207.681,52.211 209.346,52.961 211.041,53.785C211.227,53.875 211.304,54.099 211.214,54.286C211.123,54.472 210.899,54.55 210.713,54.459C209.03,53.642 207.379,52.899 205.74,52.214C205.549,52.134 205.458,51.914 205.539,51.723ZM220.161,59.192C220.268,59.015 220.499,58.959 220.676,59.066C222.178,59.977 223.723,60.951 225.32,61.995C225.494,62.109 225.542,62.341 225.429,62.514C225.316,62.687 225.083,62.736 224.91,62.623C223.32,61.583 221.782,60.613 220.287,59.707C220.11,59.6 220.054,59.369 220.161,59.192L220.161,59.192ZM571.996,183.959C572.2,184.001 572.33,184.199 572.288,184.402C572.002,185.792 571.685,187.19 571.337,188.592C571.287,188.793 571.084,188.916 570.882,188.865C570.681,188.816 570.559,188.613 570.609,188.412C570.956,187.019 571.269,185.631 571.554,184.251C571.596,184.047 571.794,183.917 571.996,183.959L571.996,183.959ZM568.67,196.359C568.866,196.427 568.97,196.641 568.902,196.836C567.976,199.517 566.914,202.187 565.698,204.817C565.612,205.006 565.389,205.087 565.201,205C565.013,204.913 564.931,204.69 565.018,204.502C566.222,201.897 567.275,199.251 568.193,196.591C568.261,196.395 568.474,196.292 568.67,196.359ZM378.152,196.807C378.292,196.655 378.529,196.645 378.681,196.785C379.691,197.716 380.69,198.628 381.681,199.522C381.834,199.661 381.846,199.898 381.708,200.052C381.569,200.205 381.332,200.218 381.178,200.079C380.186,199.182 379.185,198.269 378.174,197.337C378.022,197.197 378.012,196.959 378.152,196.807ZM387.244,204.925C387.379,204.768 387.616,204.749 387.773,204.884C389.874,206.68 391.953,208.399 394.029,210.046C394.192,210.175 394.219,210.41 394.09,210.572C393.962,210.735 393.726,210.762 393.564,210.633C391.479,208.98 389.392,207.255 387.285,205.454C387.128,205.319 387.109,205.083 387.244,204.925ZM561.537,211.9C561.714,212.007 561.77,212.238 561.663,212.415C560.191,214.84 558.561,217.205 556.758,219.486C556.63,219.649 556.393,219.676 556.232,219.548C556.069,219.42 556.041,219.183 556.17,219.021C557.953,216.765 559.565,214.426 561.022,212.026C561.13,211.848 561.36,211.792 561.537,211.899L561.537,211.9ZM399.971,215.023C400.092,214.855 400.327,214.816 400.495,214.938C401.596,215.73 402.701,216.504 403.816,217.261C403.987,217.377 404.031,217.61 403.915,217.782C403.798,217.953 403.565,217.997 403.394,217.881C402.274,217.12 401.163,216.342 400.057,215.547C399.889,215.425 399.85,215.191 399.971,215.023ZM551,225.349C551.145,225.497 551.142,225.734 550.993,225.879C549.973,226.87 548.911,227.837 547.805,228.778C546.556,229.841 545.28,230.843 543.981,231.79C543.813,231.912 543.579,231.875 543.457,231.708C543.334,231.541 543.372,231.306 543.539,231.184C544.823,230.248 546.085,229.256 547.32,228.206C548.413,227.277 549.462,226.321 550.47,225.341C550.619,225.196 550.856,225.2 551,225.349ZM436.337,234.109C436.408,233.914 436.623,233.813 436.818,233.884C437.877,234.268 439.415,234.824 441.363,235.487C441.559,235.554 441.664,235.767 441.597,235.964C441.531,236.159 441.317,236.264 441.122,236.197C439.166,235.532 437.624,234.974 436.565,234.59L436.563,234.589C436.368,234.519 436.267,234.304 436.337,234.109ZM535.874,236.414C535.97,236.597 535.899,236.825 535.715,236.921C532.817,238.438 529.841,239.731 526.811,240.823C526.616,240.892 526.401,240.791 526.331,240.597C526.261,240.402 526.361,240.187 526.556,240.117C529.557,239.036 532.502,237.757 535.368,236.256C535.551,236.16 535.778,236.231 535.874,236.414ZM450.124,238.64C450.181,238.441 450.389,238.327 450.588,238.384C453.412,239.196 456.548,240.031 459.931,240.824C460.132,240.872 460.257,241.074 460.21,241.275C460.163,241.477 459.961,241.602 459.759,241.555C456.362,240.758 453.215,239.92 450.38,239.104C450.182,239.048 450.067,238.84 450.124,238.64ZM468.945,243.084C468.982,242.881 469.177,242.745 469.381,242.781C472.451,243.331 475.647,243.817 478.935,244.205C479.14,244.229 479.287,244.416 479.263,244.621C479.238,244.826 479.052,244.974 478.846,244.949C475.543,244.559 472.332,244.071 469.249,243.52C469.045,243.483 468.909,243.288 468.945,243.084ZM517.764,243.092C517.809,243.295 517.684,243.496 517.481,243.542C514.311,244.264 511.112,244.803 507.908,245.185C507.702,245.209 507.516,245.063 507.491,244.857C507.467,244.652 507.613,244.465 507.819,244.44C510.998,244.061 514.172,243.527 517.314,242.81C517.516,242.765 517.717,242.891 517.764,243.092ZM488.158,245.375C488.168,245.168 488.345,245.008 488.551,245.019C491.728,245.178 494.955,245.225 498.202,245.135C498.409,245.129 498.582,245.292 498.588,245.499C498.593,245.706 498.43,245.879 498.223,245.885C494.955,245.976 491.708,245.928 488.514,245.769C488.307,245.758 488.147,245.582 488.158,245.375Z" style="fill:rgb(19,34,62);"/>
        <path d="M30.138,138.92C34.496,115.128 45.834,92.552 63.286,75.107C110.286,28.127 176.881,43.098 193.116,47.533" style="fill:none;stroke:rgb(19,34,62);stroke-width:0.75px;"/>
        <path d="M176.888,105.794C179.874,105.506 182.917,105.467 185.954,105.651C186.16,105.664 186.318,105.841 186.306,106.048C186.293,106.255 186.115,106.412 185.908,106.4C182.908,106.218 179.904,106.256 176.961,106.541C176.754,106.561 176.57,106.41 176.551,106.204C176.531,105.998 176.682,105.815 176.888,105.794L176.888,105.794ZM194.498,107.122C194.539,106.919 194.737,106.788 194.94,106.829C197.943,107.432 200.881,108.233 203.687,109.202C203.882,109.27 203.985,109.483 203.918,109.678C203.851,109.875 203.637,109.978 203.441,109.911C200.668,108.952 197.763,108.16 194.792,107.563C194.589,107.523 194.458,107.326 194.498,107.122L194.498,107.122ZM168.44,107.753C168.499,107.951 168.386,108.161 168.188,108.219C165.301,109.077 162.55,110.236 160.003,111.728C159.824,111.833 159.595,111.773 159.49,111.594C159.386,111.415 159.445,111.186 159.624,111.081C162.228,109.555 165.036,108.373 167.975,107.5C168.173,107.441 168.382,107.554 168.44,107.753L168.44,107.753ZM211.511,112.934C211.607,112.751 211.833,112.68 212.017,112.776C213.39,113.495 214.701,114.257 215.94,115.057C217.222,115.885 218.453,116.771 219.634,117.71C219.796,117.839 219.823,118.074 219.694,118.236C219.565,118.399 219.329,118.425 219.167,118.296C218.005,117.373 216.794,116.501 215.533,115.686C214.314,114.9 213.022,114.149 211.669,113.44C211.485,113.344 211.415,113.117 211.511,112.934L211.511,112.934ZM153.023,116.709C153.174,116.852 153.181,117.09 153.038,117.239C152.034,118.302 151.093,119.45 150.225,120.688C149.499,121.723 148.835,122.8 148.232,123.914C148.134,124.097 147.906,124.164 147.724,124.066C147.542,123.968 147.474,123.74 147.573,123.557C148.189,122.418 148.868,121.316 149.61,120.258C150.501,118.99 151.464,117.813 152.493,116.724C152.635,116.574 152.873,116.567 153.023,116.709L153.023,116.709ZM225.638,123.97C225.795,123.835 226.032,123.852 226.167,124.009C228.132,126.291 229.899,128.755 231.476,131.368C231.582,131.545 231.525,131.776 231.348,131.882C231.171,131.989 230.94,131.932 230.833,131.754C229.277,129.175 227.534,126.746 225.598,124.498C225.463,124.341 225.481,124.104 225.638,123.97L225.638,123.97ZM145.123,130.471C145.323,130.528 145.437,130.736 145.381,130.935C144.691,133.329 144.23,135.828 143.999,138.399C143.98,138.605 143.798,138.758 143.592,138.739C143.385,138.72 143.233,138.538 143.252,138.332C143.487,135.715 143.956,133.169 144.659,130.727C144.716,130.528 144.924,130.413 145.123,130.471L145.123,130.471ZM235.078,139.255C235.269,139.175 235.489,139.264 235.57,139.455C236.727,142.209 237.716,145.072 238.54,148.015C238.596,148.214 238.48,148.421 238.281,148.477C238.081,148.533 237.874,148.416 237.819,148.217C237.002,145.303 236.023,142.47 234.878,139.746C234.798,139.555 234.888,139.336 235.078,139.255L235.078,139.255ZM143.566,145.655C143.772,145.639 143.953,145.793 143.97,146C144.166,148.482 144.561,150.996 145.153,153.516C145.201,153.717 145.076,153.919 144.874,153.967C144.673,154.014 144.471,153.889 144.424,153.688C143.822,151.132 143.422,148.58 143.222,146.058C143.206,145.852 143.36,145.671 143.567,145.655L143.566,145.655ZM240.065,156.551C240.269,156.518 240.463,156.656 240.496,156.86C240.986,159.817 241.329,162.824 241.53,165.854C241.544,166.06 241.387,166.238 241.18,166.253C240.974,166.266 240.795,166.109 240.781,165.903C240.582,162.897 240.242,159.915 239.756,156.983C239.722,156.779 239.861,156.585 240.065,156.551L240.065,156.551ZM146.935,160.572C147.128,160.497 147.346,160.592 147.421,160.785C147.878,161.958 148.379,163.127 148.924,164.288C149.012,164.476 148.932,164.699 148.744,164.787C148.557,164.875 148.333,164.794 148.246,164.606C147.694,163.43 147.186,162.246 146.722,161.057C146.647,160.864 146.742,160.647 146.935,160.571L146.935,160.572ZM241.348,174.52C241.554,174.525 241.718,174.697 241.714,174.904C241.638,177.923 241.429,180.94 241.089,183.934C241.066,184.139 240.88,184.288 240.674,184.264C240.468,184.24 240.32,184.055 240.343,183.849C240.681,180.878 240.889,177.882 240.964,174.885C240.969,174.678 241.141,174.515 241.348,174.52L241.348,174.52ZM30.081,181.335C30.278,181.273 30.489,181.382 30.552,181.579C30.933,182.781 31.364,184.079 31.848,185.461C31.917,185.657 31.814,185.871 31.618,185.939C31.422,186.008 31.209,185.905 31.141,185.709C30.654,184.32 30.22,183.014 29.837,181.806C29.774,181.609 29.883,181.398 30.081,181.335ZM239.38,192.432C239.583,192.473 239.714,192.671 239.673,192.874C239.062,195.858 238.321,198.792 237.453,201.648C237.393,201.846 237.184,201.957 236.985,201.898C236.787,201.838 236.676,201.627 236.736,201.43C237.597,198.596 238.332,195.686 238.938,192.724C238.979,192.521 239.178,192.39 239.38,192.432L239.38,192.432ZM34.293,192.93C34.484,192.851 34.704,192.942 34.782,193.133C35.77,195.511 36.884,198.021 38.139,200.622C38.229,200.809 38.151,201.033 37.965,201.122C37.778,201.212 37.554,201.135 37.464,200.948C36.203,198.333 35.082,195.81 34.09,193.42C34.011,193.229 34.101,193.01 34.293,192.93ZM41.409,207.768C41.589,207.667 41.817,207.732 41.918,207.913C43.208,210.233 44.606,212.593 46.12,214.966C46.231,215.141 46.18,215.373 46.005,215.485C45.83,215.595 45.599,215.544 45.487,215.37C43.964,212.982 42.559,210.61 41.262,208.278C41.162,208.096 41.227,207.868 41.409,207.768ZM234.185,209.68C234.376,209.76 234.466,209.98 234.386,210.171C233.795,211.575 233.172,212.95 232.515,214.292C231.825,215.703 231.094,217.089 230.322,218.45C230.22,218.63 229.992,218.692 229.812,218.591C229.631,218.489 229.568,218.259 229.67,218.079C230.434,216.732 231.159,215.361 231.842,213.963C232.492,212.634 233.11,211.272 233.694,209.88C233.774,209.69 233.994,209.6 234.185,209.68ZM50.225,221.659C50.392,221.537 50.627,221.574 50.749,221.741C52.333,223.905 54.019,226.062 55.812,228.193C55.946,228.352 55.925,228.588 55.767,228.721C55.609,228.855 55.372,228.835 55.238,228.676C53.434,226.532 51.738,224.361 50.144,222.183C50.021,222.016 50.058,221.782 50.225,221.659L50.225,221.659ZM225.128,225.805C225.295,225.927 225.331,226.162 225.208,226.329C223.353,228.849 221.352,231.261 219.22,233.564C219.079,233.716 218.842,233.725 218.69,233.584C218.538,233.444 218.529,233.206 218.67,233.054C220.784,230.772 222.766,228.381 224.604,225.884C224.728,225.718 224.962,225.682 225.128,225.805ZM60.783,234.269C60.932,234.125 61.169,234.128 61.313,234.276C63.19,236.208 65.167,238.101 67.247,239.939C67.403,240.077 67.418,240.314 67.28,240.469C67.143,240.624 66.906,240.638 66.751,240.501C64.656,238.649 62.666,236.743 60.776,234.799C60.631,234.651 60.635,234.413 60.783,234.269ZM212.517,239.573C212.654,239.729 212.638,239.966 212.482,240.102C210.135,242.152 207.674,244.093 205.114,245.919C204.945,246.04 204.711,246 204.59,245.831C204.47,245.663 204.51,245.429 204.678,245.309C207.22,243.496 209.66,241.571 211.988,239.538C212.144,239.401 212.381,239.418 212.517,239.574L212.517,239.573ZM73.072,245.199C73.196,245.033 73.432,245 73.597,245.125C74.682,245.942 75.791,246.743 76.924,247.527C77.095,247.645 77.138,247.878 77.02,248.048C76.902,248.219 76.669,248.261 76.498,248.144C75.356,247.354 74.239,246.547 73.146,245.724C72.98,245.599 72.947,245.365 73.072,245.199ZM197.362,250.494C197.466,250.673 197.405,250.903 197.227,251.007C194.536,252.574 191.762,254.029 188.917,255.369C188.73,255.456 188.506,255.376 188.418,255.189C188.329,255.002 188.41,254.779 188.597,254.69C191.423,253.359 194.178,251.914 196.849,250.359C197.028,250.255 197.257,250.315 197.362,250.494L197.362,250.494ZM180.49,258.528C180.562,258.722 180.464,258.938 180.269,259.011C177.35,260.101 174.375,261.079 171.356,261.94C171.157,261.997 170.95,261.882 170.893,261.682C170.836,261.483 170.952,261.276 171.15,261.219C174.151,260.363 177.107,259.392 180.007,258.308C180.201,258.235 180.417,258.334 180.49,258.528ZM101.775,260.416C101.84,260.219 102.053,260.113 102.249,260.179C103.723,260.672 105.207,261.132 106.7,261.559C106.9,261.616 107.015,261.824 106.958,262.023C106.901,262.222 106.694,262.337 106.494,262.28C104.99,261.85 103.495,261.387 102.011,260.89C101.815,260.824 101.709,260.612 101.775,260.416ZM162.534,263.719C162.575,263.922 162.444,264.12 162.241,264.161C159.182,264.782 156.092,265.287 152.982,265.673C152.776,265.699 152.589,265.553 152.564,265.348C152.538,265.142 152.684,264.955 152.89,264.929C155.98,264.545 159.052,264.044 162.091,263.426C162.295,263.385 162.493,263.516 162.534,263.719ZM115.323,264.03C115.363,263.826 115.56,263.694 115.763,263.734C118.811,264.33 121.886,264.798 124.977,265.14C125.183,265.164 125.332,265.349 125.309,265.555C125.286,265.761 125.1,265.909 124.895,265.886C121.784,265.541 118.688,265.069 115.619,264.47C115.416,264.43 115.283,264.233 115.323,264.03ZM143.992,266.08C144.002,266.287 143.842,266.463 143.635,266.472C140.512,266.619 137.38,266.645 134.253,266.547C134.046,266.542 133.883,266.368 133.89,266.161C133.897,265.954 134.069,265.791 134.276,265.798C137.385,265.894 140.496,265.869 143.6,265.723C143.807,265.713 143.982,265.873 143.992,266.08ZM152.861,172.046C153.033,171.93 153.267,171.976 153.382,172.149C154.205,173.373 155.081,174.58 156.01,175.767C156.138,175.931 156.109,176.166 155.946,176.294C155.783,176.422 155.547,176.393 155.419,176.23C154.479,175.029 153.592,173.806 152.759,172.566C152.644,172.395 152.69,172.161 152.861,172.046ZM28.156,172.888C28.111,172.686 27.91,172.559 27.708,172.604C27.506,172.649 27.379,172.849 27.424,173.052C27.586,173.779 27.939,175.293 28.532,177.43C28.588,177.63 28.795,177.747 28.994,177.691C29.194,177.636 29.311,177.43 29.255,177.229C28.666,175.106 28.316,173.605 28.156,172.888Z" style="fill:rgb(19,34,62);"/>
        <path d="M588.144,120.859L482.25,120.859L482.25,120.109L588.144,120.109L588.144,120.859ZM588.144,161.857L482.25,161.857L482.25,161.107L588.144,161.107L588.144,161.857ZM482.25,202.852L588.144,202.852L588.144,202.102L482.25,202.102L482.25,202.852ZM588.144,243.85L482.25,243.85L482.25,243.1L588.144,243.1L588.144,243.85ZM482.25,284.845L588.144,284.845L588.144,284.095L482.25,284.095L482.25,284.845Z" style="fill:white;"/>
        <path d="M121.124,77.47L15.231,77.47L15.231,76.72L121.124,76.72L121.124,77.47ZM121.124,118.465L15.231,118.465L15.231,117.715L121.124,117.715L121.124,118.465ZM15.231,159.463L121.124,159.463L121.124,158.713L15.231,158.713L15.231,159.463ZM121.124,200.458L15.231,200.458L15.231,199.708L121.124,199.708L121.124,200.458ZM15.231,241.456L51.999,241.456L51.999,240.706L15.231,240.706L15.231,241.456ZM61.287,241.456L92.495,241.456L92.495,240.706L61.287,240.706L61.287,241.456ZM101.988,241.456L121.124,241.456L121.124,240.706L101.988,240.706L101.988,241.456Z" style="fill:white;"/>
        <path d="M375.488,128.873L373.403,125.836L372.825,125.003L359.453,105.526L370.868,101.731L373.403,105.451L378.338,112.695L380.273,115.538L382.688,119.086C380.918,119.543 378.721,120.331 379.043,121.321C379.448,122.573 384.165,123.893 386.325,124.426L386.588,124.809L388.005,126.893L390.105,129.976L379.83,133.291L378.758,133.636L378.765,133.629L378.765,133.621C378.765,133.614 378.765,133.606 378.773,133.599C378.824,133.434 379.02,132.819 379.238,132.001L379.238,131.994C379.342,131.619 379.448,131.199 379.545,130.756C379.68,130.134 379.807,129.474 379.875,128.852C379.957,128.161 379.972,127.517 379.868,127.029C379.814,126.759 379.724,126.542 379.582,126.384C379.028,125.762 378.787,125.724 378.338,126.144C378.274,126.202 378.205,126.273 378.127,126.353C378.084,126.396 378.04,126.441 377.993,126.489C377.953,126.531 377.912,126.575 377.869,126.622C377.471,127.053 376.911,127.656 376.064,128.394C375.893,128.545 375.705,128.702 375.51,128.859L375.502,128.867C375.498,128.871 375.496,128.873 375.494,128.873C375.492,128.874 375.491,128.874 375.488,128.874L375.488,128.873ZM441.098,183.63L441.083,183.495L440.828,181.012L440.641,179.19C440.618,178.98 440.768,178.8 440.978,178.777C441.181,178.755 441.368,178.905 441.39,179.107L441.608,181.23L441.683,181.965L441.841,183.487L441.878,183.87C441.893,184.08 441.75,184.26 441.541,184.282C441.338,184.305 441.151,184.155 441.128,183.952L441.098,183.63ZM437.206,184.754C436.996,184.777 436.816,184.627 436.793,184.417L436.771,184.162L436.35,180.037C436.343,179.955 436.358,179.872 436.411,179.804C436.463,179.707 436.561,179.639 436.681,179.624C436.89,179.602 437.07,179.752 437.093,179.962L437.093,179.992L437.513,184.094L437.536,184.342C437.558,184.552 437.408,184.732 437.206,184.754ZM432.098,184.732C432.121,184.942 432.301,185.092 432.511,185.069C432.713,185.047 432.863,184.859 432.848,184.657L432.825,184.454L432.42,180.464C432.398,180.261 432.218,180.111 432.008,180.127C431.805,180.149 431.655,180.337 431.67,180.539L432.076,184.492L432.098,184.731L432.098,184.732ZM427.276,185.272C427.261,185.242 427.253,185.205 427.253,185.168L427.231,184.733L427.013,180.742C427.006,180.54 427.163,180.36 427.366,180.352C427.576,180.337 427.756,180.495 427.763,180.705L427.981,184.703L428.003,185.123C428.003,185.175 427.996,185.235 427.973,185.28C427.921,185.415 427.793,185.505 427.643,185.52C427.478,185.528 427.329,185.423 427.276,185.273L427.276,185.272ZM422.693,180.352C422.483,180.344 422.31,180.509 422.31,180.719L422.251,184.904L422.243,185.189L422.243,185.227C422.258,185.414 422.416,185.564 422.611,185.564C422.798,185.571 422.963,185.429 422.993,185.234L422.993,185.197L423.001,184.882L423.061,180.727C423.061,180.524 422.896,180.352 422.693,180.352ZM417.428,185.513C417.428,185.716 417.256,185.888 417.053,185.881C416.843,185.881 416.678,185.716 416.678,185.506L416.678,185.041L416.693,180.893C416.693,180.683 416.866,180.518 417.076,180.518C417.278,180.518 417.443,180.683 417.443,180.893L417.428,185.026L417.428,185.513ZM410.933,185.528C410.948,185.737 411.121,185.895 411.331,185.88C411.533,185.873 411.691,185.693 411.683,185.49L411.661,185.115L411.436,181.072C411.428,180.862 411.248,180.705 411.046,180.712C410.836,180.727 410.678,180.907 410.686,181.11L410.911,185.13L410.933,185.528Z" style="fill:rgb(196,196,196);"/>
        <path d="M410.633,90.893C410.633,91.22 410.368,91.485 410.041,91.485C409.715,91.485 409.45,91.22 409.45,90.893C409.45,90.567 409.715,90.301 410.041,90.301C410.368,90.301 410.633,90.567 410.633,90.893ZM409.772,97.456C409.772,97.633 409.628,97.777 409.45,97.777C409.272,97.777 409.129,97.633 409.129,97.456C409.129,97.278 409.273,97.134 409.45,97.134C409.628,97.134 409.772,97.278 409.772,97.456ZM421.599,95.018C421.599,95.196 421.455,95.34 421.278,95.34C421.1,95.34 420.956,95.196 420.956,95.018C420.956,94.84 421.1,94.696 421.278,94.696C421.455,94.696 421.599,94.841 421.599,95.018ZM417.981,96.494C417.981,96.672 417.837,96.816 417.66,96.816C417.482,96.816 417.338,96.672 417.338,96.494C417.338,96.316 417.482,96.173 417.66,96.173C417.838,96.173 417.981,96.317 417.981,96.494ZM415.255,98.256C415.433,98.256 415.577,98.112 415.577,97.934C415.577,97.757 415.433,97.613 415.255,97.613C415.077,97.613 414.933,97.757 414.933,97.934C414.933,98.112 415.078,98.256 415.255,98.256ZM417.864,99.642C417.864,99.82 417.72,99.964 417.542,99.964C417.364,99.964 417.22,99.82 417.22,99.642C417.22,99.464 417.365,99.32 417.542,99.32C417.72,99.32 417.864,99.465 417.864,99.642ZM414.042,100.606C414.219,100.606 414.363,100.462 414.363,100.285C414.363,100.107 414.219,99.963 414.042,99.963C413.864,99.963 413.72,100.107 413.72,100.285C413.72,100.463 413.864,100.606 414.042,100.606ZM411.121,102.508C411.299,102.508 411.443,102.364 411.443,102.187C411.443,102.009 411.299,101.865 411.121,101.865C410.944,101.865 410.799,102.009 410.799,102.187C410.799,102.364 410.944,102.508 411.121,102.508ZM419.969,98.899C420.147,98.899 420.29,98.755 420.29,98.578C420.29,98.4 420.146,98.256 419.969,98.256C419.791,98.256 419.647,98.4 419.647,98.578C419.647,98.755 419.791,98.899 419.969,98.899ZM419.969,101.407C419.969,101.585 419.825,101.729 419.647,101.729C419.469,101.729 419.326,101.585 419.326,101.407C419.326,101.229 419.47,101.086 419.647,101.086C419.825,101.086 419.969,101.23 419.969,101.407ZM415.685,102.372C415.863,102.372 416.006,102.228 416.006,102.051C416.006,101.873 415.862,101.729 415.685,101.729C415.507,101.729 415.363,101.873 415.363,102.051C415.363,102.229 415.507,102.372 415.685,102.372ZM411.443,97.459C411.621,97.459 411.765,97.315 411.765,97.137C411.765,96.96 411.62,96.816 411.443,96.816C411.266,96.816 411.121,96.96 411.121,97.137C411.121,97.315 411.266,97.459 411.443,97.459Z" style="fill:rgb(19,34,62);"/>
        <g transform="matrix(1,0,0,1,169.285,127.56)">
            <g id="_1028542360" transform="matrix(0.0535574,0,0,0.0535574,-137.741,0.36413)">
                <path d="M2772.18,113.534L3033.83,113.534C3074.6,113.534 3107.96,146.895 3107.96,187.668L3107.96,281.424L2698.05,281.424L2698.05,187.668C2698.05,146.895 2731.41,113.534 2772.18,113.534Z" style="fill:rgb(254,254,254);stroke:rgb(254,254,254);stroke-width:32.93px;stroke-linecap:butt;"/>
                <g>
                    <path d="M3149.39,379.403C3150.48,407.365 3159.75,500.373 3060.78,526.48L3061.9,620.337C3052.8,680.282 2938.47,682.202 2906.1,626.549C2872.08,676.598 2769.78,676.851 2751.2,630.693L2750.99,527.992C2666.58,500.769 2657.52,428.199 2659.22,379.947C2659.22,155.02 3149.39,167.258 3149.39,379.403Z" style="fill:rgb(254,254,254);"/>
                    <path id="_1" serif:id="1" d="M3077.22,526.285L3044.34,526.678L3056.59,510.561L3064.66,508.188L3072.07,505.519L3078.88,502.578L3085.11,499.394L3090.81,495.993L3096,492.393L3100.72,488.611L3105.02,484.665L3108.91,480.564L3112.43,476.319L3115.61,471.939L3118.46,467.435L3121.01,462.82L3123.27,458.108L3125.27,453.311L3127,448.451L3128.5,443.543L3129.77,438.612L3130.83,433.681L3131.69,428.77L3132.37,423.906L3132.89,419.113L3133.26,414.414L3133.49,409.836L3133.62,405.402L3133.66,401.134L3133.62,397.053L3133.52,393.181L3133.38,389.534L3133.23,386.125L3133.09,382.959L3132.96,380.045L3165.81,378.757L3165.93,381.457L3166.08,384.62L3166.23,388.206L3166.38,392.172L3166.49,396.482L3166.53,401.103L3166.49,406.011L3166.34,411.174L3166.06,416.569L3165.62,422.172L3164.99,427.96L3164.16,433.906L3163.09,439.99L3161.76,446.185L3160.14,452.467L3158.2,458.813L3155.92,465.193L3153.27,471.576L3150.21,477.936L3146.72,484.238L3142.78,490.45L3138.37,496.531L3133.46,502.446L3128.04,508.157L3122.09,513.626L3115.6,518.816L3108.56,523.69L3100.98,528.221L3092.83,532.379L3084.12,536.14L3074.83,539.485L3064.96,542.389L3077.21,526.271L3077.22,526.285ZM3044.34,526.678L3044.18,513.834L3056.59,510.564L3044.34,526.681L3044.34,526.678ZM3045.46,620.535L3044.34,526.678L3077.22,526.285L3078.34,620.142L3078.15,622.811L3045.46,620.532L3045.46,620.535ZM3078.34,620.142L3078.35,621.487L3078.15,622.814L3078.34,620.146L3078.34,620.142ZM2919.69,635.816L2892.51,617.288L2920.31,618.267L2922.74,622.011L2925.53,625.547L2928.68,628.888L2932.19,632.031L2936.03,634.965L2940.2,637.681L2944.66,640.162L2949.38,642.397L2954.33,644.374L2959.48,646.081L2964.78,647.513L2970.2,648.659L2975.69,649.52L2981.22,650.088L2986.75,650.364L2992.24,650.347L2997.64,650.038L3002.91,649.443L3008.01,648.569L3012.9,647.426L3017.55,646.024L3021.9,644.377L3025.94,642.508L3029.62,640.434L3032.93,638.182L3035.86,635.772L3038.39,633.221L3040.55,630.535L3042.34,627.702L3043.79,624.687L3044.89,621.436L3045.65,617.87L3078.16,622.818L3076.6,630.149L3074.23,637.12L3071.11,643.648L3067.3,649.675L3062.9,655.17L3057.98,660.121L3052.64,664.535L3046.92,668.427L3040.9,671.822L3034.61,674.74L3028.1,677.204L3021.39,679.23L3014.51,680.837L3007.51,682.037L3000.41,682.84L2993.22,683.25L2985.99,683.274L2978.73,682.914L2971.48,682.172L2964.26,681.042L2957.1,679.523L2950.03,677.614L2943.07,675.304L2936.27,672.588L2929.65,669.452L2923.25,665.886L2917.1,661.879L2911.26,657.416L2905.76,652.485L2900.66,647.076L2896.02,641.187L2891.91,634.834L2919.7,635.813L2919.69,635.816ZM2892.51,617.288L2907.18,595.702L2920.31,618.267L2892.51,617.288ZM2734.76,630.73L2767.64,630.663L2766.44,624.539L2767.6,626.986L2769.06,629.315L2770.84,631.571L2772.98,633.759L2775.48,635.87L2778.35,637.883L2781.58,639.776L2785.15,641.523L2789.05,643.103L2793.23,644.498L2797.67,645.688L2802.33,646.663L2807.19,647.412L2812.2,647.927L2817.35,648.202L2822.58,648.236L2827.86,648.024L2833.17,647.564L2838.46,646.854L2843.71,645.9L2848.88,644.703L2853.95,643.265L2858.87,641.591L2863.63,639.688L2868.18,637.564L2872.51,635.228L2876.58,632.69L2880.38,629.961L2883.89,627.05L2887.08,623.964L2889.95,620.71L2892.51,617.282L2919.69,635.809L2915.47,641.473L2910.83,646.73L2905.82,651.574L2900.49,656.011L2894.87,660.051L2889.01,663.705L2882.93,666.985L2876.68,669.906L2870.26,672.474L2863.72,674.696L2857.08,676.582L2850.35,678.138L2843.57,679.372L2836.76,680.282L2829.94,680.874L2823.14,681.15L2816.36,681.106L2809.65,680.743L2803.01,680.061L2796.47,679.052L2790.05,677.711L2783.78,676.027L2777.67,673.99L2771.75,671.583L2766.05,668.79L2760.6,665.59L2755.43,661.96L2750.6,657.876L2746.16,653.322L2742.18,648.286L2738.74,642.781L2735.94,636.848L2734.74,630.724L2734.76,630.73ZM2735.95,636.855L2734.76,633.907L2734.76,630.73L2735.95,636.855ZM2767.42,527.962L2767.64,630.663L2734.76,630.73L2734.55,528.029L2756.03,512.325L2767.42,527.962ZM2756.03,512.325L2767.4,515.996L2767.42,527.962L2756.03,512.325ZM2642.77,379.951L2675.65,379.951L2675.64,380.529L2675.52,384.855L2675.47,389.292L2675.51,393.819L2675.63,398.424L2675.86,403.093L2676.2,407.813L2676.66,412.572L2677.25,417.355L2677.99,422.148L2678.87,426.942L2679.91,431.721L2681.11,436.474L2682.49,441.19L2684.05,445.856L2685.8,450.461L2687.76,454.998L2689.92,459.455L2692.3,463.828L2694.9,468.107L2697.75,472.286L2700.84,476.359L2704.2,480.322L2707.83,484.171L2711.76,487.895L2716,491.495L2720.57,494.957L2725.49,498.275L2730.78,501.441L2736.46,504.443L2742.55,507.267L2749.06,509.898L2756.02,512.325L2745.94,543.666L2737.51,540.728L2729.5,537.488L2721.89,533.959L2714.69,530.154L2707.88,526.083L2701.48,521.764L2695.46,517.209L2689.83,512.436L2684.59,507.465L2679.72,502.312L2675.21,496.998L2671.07,491.542L2667.27,485.969L2663.81,480.295L2660.68,474.541L2657.86,468.723L2655.34,462.86L2653.1,456.971L2651.12,451.069L2649.39,445.17L2647.9,439.288L2646.63,433.436L2645.56,427.627L2644.68,421.876L2643.98,416.192L2643.44,410.592L2643.04,405.087L2642.78,399.685L2642.64,394.401L2642.6,389.248L2642.65,384.24L2642.78,379.379L2642.77,379.957L2642.77,379.951ZM2675.65,379.951L2675.65,380.247L2675.64,380.529L2675.65,379.951ZM3165.81,378.764L3132.96,380.052L3132.94,379.41L3131.71,362.506L3128.16,346.798L3122.43,332.126L3114.62,318.389L3104.81,305.538L3093.08,293.579L3079.55,282.547L3064.36,272.493L3047.66,263.472L3029.63,255.529L3010.46,248.702L2990.33,243.025L2969.44,238.521L2947.97,235.213L2926.13,233.116L2904.1,232.239L2882.07,232.592L2860.24,234.178L2838.81,236.998L2817.95,241.049L2797.87,246.322L2778.75,252.806L2760.79,260.477L2744.16,269.307L2729.04,279.263L2715.57,290.308L2703.89,302.409L2694.09,315.558L2686.26,329.783L2680.49,345.168L2676.89,361.833L2675.65,379.944L2642.77,379.944L2644.34,357.269L2648.94,335.914L2656.39,316.029L2666.45,297.723L2678.85,281.065L2693.32,266.07L2709.59,252.716L2727.43,240.958L2746.64,230.746L2767.04,222.03L2788.43,214.77L2810.66,208.931L2833.54,204.484L2856.92,201.409L2880.62,199.684L2904.49,199.301L2928.36,200.253L2952.05,202.528L2975.4,206.128L2998.24,211.052L3020.42,217.308L3041.76,224.908L3062.08,233.869L3081.23,244.218L3099,255.986L3115.21,269.216L3129.63,283.942L3142.02,300.187L3152.1,317.945L3159.6,337.151L3164.24,357.692L3165.82,379.393L3165.81,378.751L3165.81,378.764ZM3132.96,380.052L3132.94,379.732L3132.94,379.41L3132.96,380.052Z" style="fill:rgb(254,254,254);fill-rule:nonzero;"/>
                </g>
                <path d="M2901.23,30.003C2985.53,30.003 3054.95,86.345 3054.95,170.636C3054.95,254.931 2987.7,311.269 2903.41,311.269C2819.12,311.269 2749.7,254.927 2749.7,170.636C2749.7,86.342 2816.94,30.003 2901.23,30.003Z" style="fill:rgb(254,254,254);stroke:rgb(254,254,254);stroke-width:32.93px;stroke-linecap:butt;"/>
                <g>
                    <rect x="2888.39" y="518.53" width="32.59" height="104.53" style="fill:rgb(254,254,254);fill-rule:nonzero;"/>
                </g>
                <g>
                    <rect x="2734.23" y="337.558" width="32.93" height="192.962" style="fill:rgb(254,254,254);fill-rule:nonzero;"/>
                </g>
                <g>
                    <rect x="3044.66" y="337.558" width="32.93" height="192.962" style="fill:rgb(254,254,254);fill-rule:nonzero;"/>
                </g>
                <g>
                    <rect x="2888.3" y="315.011" width="32.92" height="124.297" style="fill:rgb(254,254,254);fill-rule:nonzero;"/>
                </g>
                <g>
                    <path d="M2740.48,633.208L2746.39,600.811L2756.43,602.569L2766.46,604.216L2776.47,605.749L2786.47,607.168L2796.45,608.468L2806.42,609.662L2816.37,610.737L2826.31,611.699L2836.22,612.549L2846.13,613.285L2856.03,613.907L2865.91,614.418L2875.77,614.811L2885.62,615.094L2895.45,615.265L2905.27,615.319L2915.07,615.262L2924.87,615.09L2934.64,614.808L2944.41,614.411L2954.16,613.9L2963.89,613.278L2973.61,612.542L2983.32,611.692L2993.01,610.731L3002.69,609.655L3012.36,608.468L3022.01,607.168L3031.65,605.752L3041.27,604.226L3050.88,602.586L3060.48,600.835L3066.64,633.184L3056.67,635.006L3046.67,636.713L3036.67,638.3L3026.64,639.769L3016.61,641.123L3006.55,642.357L2996.49,643.476L2986.41,644.475L2976.31,645.359L2966.21,646.125L2956.09,646.77L2945.95,647.301L2935.8,647.715L2925.64,648.011L2915.46,648.185L2905.27,648.246L2895.07,648.189L2884.85,648.014L2874.62,647.718L2864.38,647.308L2854.13,646.78L2843.86,646.135L2833.58,645.369L2823.28,644.488L2812.97,643.49L2802.66,642.374L2792.32,641.14L2781.98,639.789L2771.62,638.32L2761.25,636.734L2750.87,635.029L2740.48,633.208Z" style="fill:rgb(254,254,254);fill-rule:nonzero;"/>
                </g>
                <g>
                    <path d="M2783.09,130.166C2864.22,111.84 2943.64,113.941 3021.85,130.28C3029.21,156.3 3030.24,182.041 3023.85,207.452C2941.25,282.534 2861.5,280.11 2781.3,204.236C2774.18,180.229 2776.45,155.389 2783.09,130.166Z" style="fill:rgb(254,254,254);"/>
                    <path id="_11" serif:id="1" d="M3037.6,125.776L3006.1,134.785L3018.51,146.398L3011.36,144.946L3004.2,143.574L2997.03,142.287L2989.86,141.087L2982.69,139.971L2975.51,138.943L2968.33,138.001L2961.14,137.151L2953.95,136.391L2946.76,135.722L2939.55,135.144L2932.35,134.66L2925.13,134.27L2917.91,133.978L2910.68,133.78L2903.45,133.679L2896.21,133.679L2888.96,133.776L2881.71,133.975L2874.45,134.277L2867.18,134.68L2859.91,135.188L2852.62,135.8L2845.33,136.519L2838.03,137.346L2830.73,138.28L2823.41,139.326L2816.08,140.479L2808.74,141.746L2801.39,143.124L2794.04,144.616L2786.67,146.223L2779.49,114.096L2787.33,112.385L2795.15,110.798L2802.97,109.333L2810.77,107.985L2818.57,106.758L2826.36,105.649L2834.14,104.654L2841.91,103.777L2849.66,103.01L2857.41,102.358L2865.15,101.817L2872.88,101.387L2880.59,101.067L2888.3,100.856L2895.99,100.751L2903.68,100.751L2911.35,100.856L2919.01,101.064L2926.67,101.377L2934.31,101.79L2941.94,102.301L2949.56,102.909L2957.17,103.615L2964.77,104.419L2972.35,105.316L2979.93,106.308L2987.5,107.39L2995.05,108.563L3002.6,109.827L3010.14,111.182L3017.66,112.62L3025.18,114.146L3037.59,125.76L3037.6,125.776ZM3025.18,114.163L3034.89,116.19L3037.6,125.776L3025.18,114.163ZM3034.83,219.667L3012.87,195.241L3007.98,203.419L3008.49,201.315L3008.96,199.211L3009.39,197.106L3009.79,195.002L3010.14,192.895L3010.46,190.787L3010.74,188.68L3010.99,186.569L3011.2,184.454L3011.37,182.34L3011.5,180.223L3011.6,178.102L3011.66,175.977L3011.69,173.85L3011.68,171.718L3011.64,169.584L3011.56,167.446L3011.44,165.305L3011.29,163.157L3011.1,161.006L3010.88,158.851L3010.62,156.69L3010.33,154.525L3010,152.354L3009.63,150.179L3009.23,147.998L3008.8,145.81L3008.33,143.618L3007.83,141.42L3007.28,139.215L3006.71,137.006L3006.1,134.791L3037.6,125.783L3038.33,128.445L3039.03,131.111L3039.68,133.776L3040.29,136.445L3040.86,139.117L3041.39,141.79L3041.88,144.465L3042.33,147.144L3042.74,149.823L3043.1,152.505L3043.42,155.188L3043.7,157.87L3043.93,160.556L3044.12,163.241L3044.27,165.93L3044.37,168.619L3044.43,171.305L3044.44,173.994L3044.41,176.683L3044.33,179.372L3044.2,182.061L3044.03,184.747L3043.81,187.433L3043.55,190.118L3043.23,192.801L3042.87,195.479L3042.47,198.158L3042.01,200.834L3041.51,203.506L3040.97,206.175L3040.37,208.841L3039.72,211.503L3034.83,219.681L3034.83,219.667ZM3039.72,211.489L3038.51,216.323L3034.83,219.667L3039.72,211.489ZM2765.6,208.941L2796.99,199.537L2792.52,192.249L2799.66,198.804L2806.77,204.918L2813.84,210.595L2820.87,215.835L2827.85,220.642L2834.79,225.015L2841.69,228.961L2848.53,232.484L2855.34,235.586L2862.09,238.276L2868.81,240.554L2875.49,242.43L2882.13,243.909L2888.76,244.995L2895.36,245.691L2901.97,246L2908.57,245.922L2915.19,245.455L2921.83,244.598L2928.51,243.348L2935.23,241.697L2942,239.64L2948.83,237.166L2955.71,234.272L2962.65,230.951L2969.65,227.197L2976.71,223.002L2983.83,218.36L2991.01,213.267L2998.25,207.721L3005.54,201.718L3012.88,195.251L3034.84,219.677L3026.71,226.837L3018.57,233.55L3010.39,239.815L3002.2,245.63L2993.97,250.995L2985.7,255.902L2977.41,260.352L2969.08,264.339L2960.71,267.858L2952.31,270.904L2943.88,273.468L2935.41,275.549L2926.93,277.139L2918.43,278.235L2909.91,278.833L2901.4,278.934L2892.9,278.537L2884.42,277.643L2875.97,276.258L2867.55,274.386L2859.17,272.033L2850.84,269.206L2842.55,265.912L2834.32,262.158L2826.13,257.949L2818,253.294L2809.91,248.198L2801.87,242.665L2793.87,236.699L2785.91,230.306L2777.98,223.489L2770.09,216.249L2765.62,208.962L2765.6,208.941ZM2770.08,216.229L2766.86,213.19L2765.6,208.941L2770.07,216.229L2770.08,216.229ZM2779.5,114.106L2786.68,146.233L2798.91,134.381L2798.35,136.583L2797.81,138.774L2797.29,140.956L2796.8,143.127L2796.35,145.289L2795.92,147.44L2795.52,149.581L2795.16,151.712L2794.82,153.83L2794.52,155.937L2794.25,158.035L2794.01,160.119L2793.8,162.193L2793.63,164.253L2793.49,166.303L2793.39,168.34L2793.33,170.367L2793.3,172.381L2793.3,174.384L2793.35,176.377L2793.43,178.357L2793.55,180.33L2793.7,182.29L2793.9,184.239L2794.14,186.179L2794.42,188.112L2794.74,190.034L2795.1,191.95L2795.51,193.856L2795.95,195.755L2796.44,197.648L2796.98,199.537L2765.6,208.941L2764.86,206.323L2764.18,203.701L2763.56,201.076L2763,198.448L2762.5,195.819L2762.07,193.19L2761.68,190.562L2761.36,187.933L2761.09,185.305L2760.88,182.68L2760.72,180.058L2760.61,177.436L2760.56,174.818L2760.55,172.203L2760.58,169.591L2760.67,166.986L2760.79,164.384L2760.97,161.786L2761.18,159.194L2761.44,156.606L2761.73,154.025L2762.07,151.447L2762.43,148.875L2762.84,146.307L2763.28,143.746L2763.76,141.188L2764.26,138.637L2764.8,136.092L2765.37,133.551L2765.97,131.013L2766.59,128.482L2767.24,125.958L2779.48,114.106L2779.5,114.106ZM2767.26,125.958L2769.8,116.297L2779.5,114.106L2767.26,125.958Z" style="fill:rgb(254,254,254);fill-rule:nonzero;"/>
                </g>
                <g>
                    <rect x="2674.16" y="444.175" width="85.4" height="32.927" style="fill:rgb(254,254,254);fill-rule:nonzero;"/>
                </g>
                <g>
                    <rect x="3069.22" y="444.175" width="69.59" height="32.927" style="fill:rgb(254,254,254);fill-rule:nonzero;"/>
                </g>
                <g>
                    <rect x="2946.36" y="373.336" width="75.44" height="32.927" style="fill:rgb(254,254,254);fill-rule:nonzero;"/>
                </g>
            </g>
            <g transform="matrix(0.0535574,0,0,0.0535574,-137.741,0.36413)">
                <rect x="2895.78" y="520.93" width="17.82" height="104.53" style="fill:rgb(254,254,254);fill-rule:nonzero;"/>
            </g>
            <g transform="matrix(0.0535574,0,0,0.0535574,-137.741,0.36413)">
                <rect x="2741.62" y="339.958" width="18.16" height="192.962" style="fill:rgb(254,254,254);fill-rule:nonzero;"/>
            </g>
            <g transform="matrix(0.0535574,0,0,0.0535574,-137.741,0.36413)">
                <rect x="3052.04" y="339.958" width="18.17" height="192.962" style="fill:rgb(254,254,254);fill-rule:nonzero;"/>
            </g>
            <g transform="matrix(0.0535574,0,0,0.0535574,-137.741,0.36413)">
                <rect x="2895.65" y="317.414" width="18.23" height="124.294" style="fill:rgb(254,254,254);fill-rule:nonzero;"/>
            </g>
            <g transform="matrix(0.0535574,0,0,0.0535574,-137.741,0.36413)">
                <path d="M2741.77,628.522L2745.1,610.297L2755.22,612.068L2765.32,613.729L2775.41,615.272L2785.49,616.7L2795.55,618.014L2805.59,619.214L2815.63,620.3L2825.65,621.272L2835.65,622.129L2845.64,622.872L2855.61,623.497L2865.57,624.011L2875.52,624.411L2885.45,624.693L2895.37,624.865L2905.27,624.922L2915.16,624.865L2925.04,624.69L2934.9,624.404L2944.75,624.004L2954.58,623.49L2964.4,622.861L2974.21,622.119L2984,621.265L2993.78,620.293L3003.54,619.208L3013.29,618.011L3023.03,616.697L3032.75,615.272L3042.46,613.732L3052.15,612.078L3061.84,610.31L3065.3,628.508L3055.41,630.317L3045.49,632.008L3035.57,633.581L3025.63,635.039L3015.68,636.381L3005.71,637.604L2995.73,638.713L2985.74,639.705L2975.73,640.582L2965.7,641.339L2955.66,641.984L2945.62,642.508L2935.55,642.918L2925.47,643.211L2915.38,643.386L2905.27,643.446L2895.16,643.386L2885.02,643.214L2874.88,642.922L2864.72,642.515L2854.54,641.991L2844.36,641.349L2834.16,640.592L2823.95,639.718L2813.72,638.727L2803.48,637.618L2793.23,636.394L2782.96,635.053L2772.68,633.594L2762.39,632.021L2752.09,630.33L2741.77,628.522Z" style="fill:rgb(254,254,254);fill-rule:nonzero;"/>
            </g>
            <g transform="matrix(0.0535574,0,0,0.0535574,-137.741,0.36413)">
                <rect x="2674.16" y="453.956" width="85.4" height="18.168" style="fill:rgb(254,254,254);fill-rule:nonzero;"/>
            </g>
            <g transform="matrix(0.0535574,0,0,0.0535574,-137.741,0.36413)">
                <rect x="3069.22" y="453.956" width="69.59" height="18.168" style="fill:rgb(254,254,254);fill-rule:nonzero;"/>
            </g>
            <g transform="matrix(0.0535574,0,0,0.0535574,-137.741,0.36413)">
                <rect x="2946.36" y="383.117" width="75.44" height="18.165" style="fill:rgb(254,254,254);fill-rule:nonzero;"/>
            </g>
            <g transform="matrix(0.0535574,0,0,0.0535574,-137.741,0.36413)">
                <path d="M2762.25,113.534L3039.63,113.534C3082.85,113.534 3118.22,145.85 3118.22,185.349L3118.22,276.171L2683.66,276.171L2683.66,185.349C2683.66,145.85 2719.02,113.534 2762.25,113.534Z" style="fill:rgb(0,160,220);"/>
                <path id="_12" serif:id="1" d="M3039.62,122.334L2762.24,122.334L2762.24,104.738L3039.62,104.738L3039.62,122.334ZM3127.84,185.349L3108.59,185.349L3108.5,182.115L3108.23,178.928L3107.79,175.789L3107.18,172.7L3106.41,169.661L3105.47,166.68L3104.39,163.759L3103.15,160.902L3101.77,158.115L3100.24,155.399L3098.57,152.761L3096.77,150.199L3094.84,147.726L3092.79,145.339L3090.62,143.047L3088.32,140.852L3085.92,138.758L3083.41,136.771L3080.8,134.892L3078.09,133.127L3075.29,131.484L3072.4,129.961L3069.43,128.566L3066.38,127.302L3063.25,126.17L3060.05,125.175L3056.79,124.324L3053.47,123.618L3050.09,123.064L3046.65,122.66L3043.16,122.415L3039.62,122.331L3039.62,104.735L3044.14,104.839L3048.61,105.151L3053.01,105.666L3057.36,106.378L3061.62,107.282L3065.81,108.375L3069.9,109.649L3073.91,111.098L3077.81,112.718L3081.61,114.503L3085.31,116.449L3088.88,118.55L3092.34,120.802L3095.67,123.198L3098.87,125.733L3101.94,128.401L3104.86,131.201L3107.63,134.126L3110.26,137.171L3112.72,140.331L3115.02,143.601L3117.15,146.976L3119.1,150.452L3120.88,154.021L3122.46,157.682L3123.86,161.426L3125.05,165.248L3126.04,169.144L3126.82,173.107L3127.39,177.134L3127.73,181.214L3127.84,185.342L3127.84,185.349ZM3108.59,276.171L3108.59,185.349L3127.84,185.349L3127.84,276.171L3118.21,284.971L3108.58,276.171L3108.59,276.171ZM3127.84,276.171L3127.84,284.971L3118.21,284.971L3127.84,276.171ZM2683.65,267.371L3118.21,267.371L3118.21,284.967L2683.65,284.967L2674.02,276.167L2683.65,267.368L2683.65,267.371ZM2683.65,284.967L2674.02,284.967L2674.02,276.167L2683.65,284.967ZM2693.28,185.345L2693.28,276.167L2674.03,276.167L2674.03,185.345L2693.28,185.345ZM2762.24,104.735L2762.24,122.331L2758.7,122.415L2755.22,122.66L2751.78,123.064L2748.4,123.618L2745.07,124.324L2741.81,125.175L2738.62,126.17L2735.49,127.302L2732.44,128.57L2729.47,129.964L2726.58,131.487L2723.78,133.131L2721.07,134.896L2718.46,136.774L2715.95,138.761L2713.55,140.855L2711.25,143.05L2709.08,145.342L2707.02,147.729L2705.09,150.203L2703.29,152.761L2701.62,155.399L2700.1,158.115L2698.72,160.902L2697.48,163.759L2696.39,166.68L2695.46,169.661L2694.69,172.697L2694.08,175.786L2693.64,178.925L2693.37,182.112L2693.28,185.345L2674.02,185.345L2674.14,181.218L2674.48,177.137L2675.04,173.11L2675.82,169.147L2676.82,165.251L2678.01,161.43L2679.4,157.685L2680.99,154.025L2682.76,150.455L2684.72,146.979L2686.85,143.605L2689.15,140.334L2691.61,137.174L2694.23,134.129L2697.01,131.205L2699.93,128.405L2702.99,125.736L2706.19,123.202L2709.52,120.805L2712.98,118.553L2716.56,116.452L2720.25,114.506L2724.05,112.721L2727.96,111.101L2731.96,109.652L2736.06,108.378L2740.25,107.286L2744.51,106.382L2748.85,105.669L2753.26,105.155L2757.72,104.842L2762.24,104.738L2762.24,104.735Z" style="fill:white;fill-rule:nonzero;"/>
            </g>
            <g transform="matrix(0.0535574,0,0,0.0535574,-137.741,0.36413)">
                <path d="M3162.13,380.041C3163.29,409.685 3173.12,508.285 3068.2,535.965L3069.39,635.466C3059.74,699.018 2938.53,701.052 2904.22,642.051C2868.15,695.109 2759.7,695.378 2739.99,646.444L2739.77,537.569C2650.29,508.709 2640.68,431.772 2642.48,380.62C2642.48,142.166 3162.13,155.141 3162.13,380.041Z" style="fill:rgb(0,160,220);"/>
                <path id="_13" serif:id="1" d="M3077.82,535.851L3058.59,536.08L3065.75,526.654L3074.73,524.012L3083.03,521.021L3090.7,517.71L3097.77,514.103L3104.26,510.231L3110.2,506.114L3115.63,501.771L3120.57,497.226L3125.06,492.497L3129.12,487.6L3132.79,482.551L3136.07,477.371L3138.99,472.077L3141.58,466.689L3143.85,461.227L3145.82,455.711L3147.51,450.168L3148.94,444.619L3150.13,439.089L3151.09,433.604L3151.84,428.189L3152.42,422.871L3152.83,417.675L3153.09,412.626L3153.24,407.749L3153.27,403.073L3153.23,398.619L3153.12,394.411L3152.98,390.468L3152.82,386.815L3152.66,383.46L3152.53,380.421L3171.74,379.668L3171.87,382.583L3172.03,385.937L3172.19,389.698L3172.35,393.826L3172.46,398.29L3172.5,403.063L3172.46,408.112L3172.31,413.412L3172.02,418.938L3171.57,424.663L3170.93,430.562L3170.09,436.609L3169,442.78L3167.66,449.049L3166.03,455.388L3164.08,461.771L3161.79,468.175L3159.13,474.564L3156.08,480.917L3152.6,487.2L3148.69,493.378L3144.3,499.421L3139.42,505.297L3134.04,510.967L3128.12,516.403L3121.66,521.569L3114.64,526.433L3107.05,530.967L3098.87,535.145L3090.08,538.94L3080.68,542.325L3070.65,545.279L3077.82,535.854L3077.82,535.851ZM3058.59,536.08L3058.49,528.567L3065.75,526.654L3058.58,536.08L3058.59,536.08ZM3059.77,635.581L3058.59,536.08L3077.82,535.851L3079,635.352L3078.89,636.915L3059.78,635.584L3059.77,635.581ZM3079,635.352L3079.01,636.139L3078.89,636.915L3079,635.352ZM2912.17,647.473L2896.28,636.636L2912.53,637.207L2915.5,641.799L2918.9,646.105L2922.7,650.138L2926.9,653.893L2931.45,657.369L2936.34,660.552L2941.53,663.439L2946.98,666.024L2952.67,668.296L2958.55,670.249L2964.59,671.879L2970.75,673.183L2976.99,674.158L2983.26,674.8L2989.53,675.113L2995.76,675.093L3001.91,674.74L3007.93,674.061L3013.8,673.056L3019.45,671.731L3024.87,670.094L3030,668.155L3034.81,665.923L3039.27,663.412L3043.36,660.636L3047.03,657.604L3050.29,654.33L3053.11,650.814L3055.49,647.053L3057.42,643.023L3058.89,638.693L3059.88,634.018L3078.89,636.912L3077.43,643.792L3075.22,650.296L3072.31,656.38L3068.75,662.01L3064.62,667.17L3059.97,671.849L3054.88,676.051L3049.39,679.788L3043.56,683.072L3037.43,685.916L3031.04,688.333L3024.42,690.333L3017.6,691.926L3010.63,693.123L3003.53,693.923L2996.34,694.333L2989.09,694.356L2981.8,693.993L2974.52,693.247L2967.28,692.114L2960.1,690.592L2953.02,688.679L2946.08,686.373L2939.31,683.667L2932.74,680.558L2926.41,677.035L2920.37,673.096L2914.65,668.73L2909.29,663.926L2904.35,658.686L2899.87,653.002L2895.91,646.888L2912.16,647.459L2912.17,647.473ZM2896.28,636.636L2904.86,624.011L2912.53,637.207L2896.28,636.636ZM2730.39,646.468L2749.62,646.428L2748.92,642.844L2750.54,646.27L2752.55,649.496L2754.96,652.548L2757.77,655.429L2760.98,658.135L2764.57,660.653L2768.52,662.968L2772.81,665.069L2777.42,666.941L2782.31,668.572L2787.45,669.953L2792.81,671.076L2798.36,671.933L2804.07,672.521L2809.89,672.834L2815.8,672.871L2821.77,672.629L2827.76,672.108L2833.73,671.308L2839.66,670.229L2845.51,668.874L2851.25,667.244L2856.86,665.338L2862.3,663.163L2867.53,660.723L2872.53,658.021L2877.27,655.063L2881.73,651.856L2885.88,648.407L2889.7,644.72L2893.16,640.797L2896.26,636.633L2912.16,647.47L2908.09,652.942L2903.59,658.041L2898.7,662.757L2893.49,667.099L2887.96,671.073L2882.17,674.683L2876.15,677.936L2869.92,680.84L2863.52,683.405L2856.97,685.63L2850.3,687.523L2843.54,689.089L2836.72,690.329L2829.86,691.247L2822.99,691.845L2816.13,692.121L2809.32,692.077L2802.57,691.714L2795.92,691.029L2789.39,690.02L2783,688.686L2776.79,687.019L2770.77,685.012L2764.98,682.656L2759.44,679.943L2754.19,676.861L2749.26,673.395L2744.69,669.533L2740.53,665.264L2736.84,660.585L2733.66,655.503L2731.08,650.041L2730.38,646.458L2730.39,646.468ZM2731.08,650.051L2730.39,648.327L2730.39,646.468L2731.09,650.051L2731.08,650.051ZM2749.39,537.555L2749.62,646.431L2730.39,646.471L2730.16,537.595L2742.72,528.409L2749.39,537.555ZM2742.72,528.409L2749.38,530.554L2749.39,537.552L2742.72,528.406L2742.72,528.409ZM2632.87,380.626L2652.1,380.626L2652.09,380.966L2651.97,385.678L2651.91,390.519L2651.95,395.466L2652.09,400.508L2652.34,405.631L2652.71,410.824L2653.22,416.071L2653.87,421.355L2654.68,426.666L2655.66,431.99L2656.82,437.311L2658.16,442.619L2659.71,447.899L2661.46,453.14L2663.44,458.326L2665.65,463.452L2668.09,468.501L2670.79,473.465L2673.76,478.332L2677,483.095L2680.53,487.741L2684.36,492.262L2688.51,496.652L2692.99,500.897L2697.81,504.991L2703,508.92L2708.57,512.678L2714.54,516.248L2720.92,519.619L2727.74,522.779L2735,525.713L2742.72,528.409L2736.83,546.738L2728.24,543.743L2720.1,540.453L2712.4,536.88L2705.12,533.034L2698.27,528.933L2691.83,524.591L2685.8,520.019L2680.16,515.24L2674.91,510.265L2670.04,505.112L2665.54,499.798L2661.4,494.346L2657.6,488.769L2654.14,483.085L2651,477.314L2648.16,471.469L2645.62,465.57L2643.36,459.63L2641.36,453.667L2639.62,447.694L2638.1,441.725L2636.81,435.775L2635.72,429.859L2634.83,423.99L2634.11,418.179L2633.55,412.441L2633.15,406.791L2632.88,401.238L2632.73,395.799L2632.69,390.485L2632.74,385.312L2632.88,380.287L2632.87,380.626ZM2652.1,380.623L2652.1,380.801L2652.09,380.962L2652.1,380.623ZM3171.75,379.672L3152.53,380.425L3152.52,380.048L3151.14,360.99L3147.11,343.188L3140.61,326.557L3131.79,311.037L3120.78,296.607L3107.71,283.27L3092.73,271.051L3076.01,259.986L3057.73,250.107L3038.07,241.445L3017.23,234.023L2995.41,227.866L2972.8,222.992L2949.59,219.415L2925.99,217.15L2902.2,216.202L2878.42,216.582L2854.83,218.296L2831.64,221.348L2809.05,225.738L2787.25,231.466L2766.45,238.524L2746.83,246.904L2728.58,256.595L2711.9,267.579L2696.96,279.838L2683.91,293.354L2672.91,308.127L2664.08,324.177L2657.56,341.555L2653.51,360.338L2652.11,380.623L2632.88,380.623L2634.46,357.669L2639.1,336.143L2646.6,316.133L2656.74,297.696L2669.27,280.87L2683.94,265.663L2700.52,252.057L2718.8,240.02L2738.55,229.523L2759.59,220.531L2781.73,213.019L2804.78,206.962L2828.56,202.34L2852.88,199.14L2877.57,197.345L2902.43,196.948L2927.3,197.937L2951.97,200.306L2976.28,204.054L3000.04,209.173L3023.06,215.667L3045.16,223.54L3066.17,232.8L3085.88,243.455L3104.11,255.526L3120.66,269.028L3135.31,283.982L3147.83,300.399L3157.98,318.268L3165.5,337.551L3170.17,358.18L3171.76,380.045L3171.75,379.668L3171.75,379.672ZM3152.53,380.425L3152.52,380.243L3152.52,380.048L3152.53,380.425Z" style="fill:white;fill-rule:nonzero;"/>
            </g>
            <g transform="matrix(0.0535574,0,0,0.0535574,-137.741,0.36413)">
                <path d="M2899.06,9.63C2988.42,9.63 3062.02,69.36 3062.02,158.72C3062.02,248.084 2990.73,307.811 2901.37,307.811C2812,307.811 2738.41,248.08 2738.41,158.72C2738.41,69.357 2809.69,9.63 2899.06,9.63Z" style="fill:rgb(0,160,220);stroke:white;stroke-width:19.26px;stroke-linecap:butt;"/>
            </g>
            <g transform="matrix(0.0535574,0,0,0.0535574,-137.741,0.36413)">
                <rect x="2893.3" y="469.213" width="18.84" height="169.137" style="fill:white;fill-rule:nonzero;"/>
            </g>
            <g transform="matrix(0.0535574,0,0,0.0535574,-137.741,0.36413)">
                <rect x="2729.84" y="335.679" width="19.26" height="204.569" style="fill:white;fill-rule:nonzero;"/>
            </g>
            <g transform="matrix(0.0535574,0,0,0.0535574,-137.741,0.36413)">
                <rect x="3058.94" y="335.679" width="19.26" height="204.569" style="fill:white;fill-rule:nonzero;"/>
            </g>
            <g transform="matrix(0.0535574,0,0,0.0535574,-137.741,0.36413)">
                <path d="M2732.57,640.434L2736.13,620.925L2746.86,622.804L2757.56,624.562L2768.26,626.196L2778.94,627.712L2789.61,629.107L2800.26,630.377L2810.89,631.527L2821.51,632.555L2832.11,633.463L2842.7,634.25L2853.28,634.915L2863.84,635.46L2874.38,635.883L2884.91,636.186L2895.42,636.367L2905.91,636.424L2916.4,636.364L2926.87,636.182L2937.32,635.88L2947.76,635.453L2958.18,634.908L2968.59,634.243L2978.99,633.456L2989.37,632.549L2999.73,631.52L3010.08,630.371L3020.42,629.1L3030.74,627.708L3041.04,626.196L3051.34,624.566L3061.61,622.811L3071.88,620.939L3075.59,640.421L3065.09,642.337L3054.59,644.128L3044.06,645.796L3033.53,647.342L3022.97,648.764L3012.41,650.064L3001.82,651.238L2991.23,652.29L2980.61,653.217L2969.99,654.024L2959.35,654.703L2948.69,655.261L2938.02,655.695L2927.33,656.004L2916.63,656.192L2905.92,656.253L2895.19,656.192L2884.45,656.007L2873.69,655.701L2862.92,655.268L2852.13,654.713L2841.33,654.034L2830.52,653.231L2819.69,652.303L2808.85,651.251L2797.99,650.078L2787.12,648.78L2776.24,647.359L2765.34,645.812L2754.43,644.142L2743.5,642.35L2732.57,640.434Z" style="fill:white;fill-rule:nonzero;"/>
            </g>
            <g transform="matrix(0.0535574,0,0,0.0535574,-137.741,0.36413)">
                <path d="M2773.81,115.817C2859.83,96.389 2944.01,98.614 3026.93,115.938C3034.73,143.524 3035.82,170.811 3029.05,197.752C2941.48,277.347 2856.94,274.783 2771.91,194.343C2764.37,168.892 2766.77,142.559 2773.81,115.817Z" style="fill:white;"/>
                <path id="_14" serif:id="1" d="M3036.14,113.303L3017.72,118.573L3024.98,125.366L3017.3,123.807L3009.63,122.338L3001.94,120.956L2994.25,119.669L2986.56,118.472L2978.86,117.37L2971.15,116.361L2963.43,115.447L2955.71,114.63L2947.99,113.911L2940.25,113.292L2932.51,112.775L2924.76,112.358L2917,112.042L2909.24,111.83L2901.47,111.723L2893.69,111.723L2885.9,111.83L2878.1,112.045L2870.3,112.368L2862.48,112.802L2854.66,113.346L2846.83,114.005L2838.99,114.778L2831.14,115.666L2823.28,116.671L2815.41,117.793L2807.54,119.034L2799.65,120.395L2791.75,121.877L2783.84,123.481L2775.91,125.208L2771.72,106.419L2779.91,104.63L2788.1,102.97L2796.27,101.437L2804.43,100.029L2812.59,98.745L2820.73,97.582L2828.87,96.543L2836.99,95.625L2845.11,94.826L2853.21,94.143L2861.3,93.578L2869.38,93.128L2877.45,92.792L2885.51,92.57L2893.56,92.459L2901.6,92.459L2909.63,92.57L2917.65,92.789L2925.66,93.115L2933.66,93.545L2941.65,94.079L2949.63,94.718L2957.6,95.457L2965.56,96.298L2973.51,97.239L2981.45,98.278L2989.38,99.414L2997.3,100.644L3005.21,101.968L3013.11,103.387L3021,104.896L3028.88,106.496L3036.14,113.289L3036.14,113.303ZM3028.87,106.509L3034.55,107.696L3036.14,113.303L3028.87,106.509ZM3035.47,204.894L3022.63,190.609L3019.76,195.392L3020.34,193.029L3020.86,190.666L3021.35,188.3L3021.8,185.933L3022.2,183.564L3022.55,181.194L3022.87,178.821L3023.15,176.448L3023.38,174.071L3023.58,171.695L3023.73,169.315L3023.84,166.932L3023.91,164.545L3023.94,162.159L3023.93,159.766L3023.88,157.372L3023.79,154.976L3023.66,152.576L3023.49,150.173L3023.28,147.766L3023.03,145.356L3022.74,142.942L3022.41,140.522L3022.04,138.099L3021.64,135.672L3021.19,133.242L3020.71,130.808L3020.19,128.371L3019.63,125.928L3019.03,123.481L3018.39,121.03L3017.72,118.576L3036.14,113.306L3036.88,116.022L3037.59,118.738L3038.26,121.454L3038.88,124.173L3039.46,126.892L3040,129.612L3040.5,132.331L3040.96,135.05L3041.37,137.769L3041.74,140.489L3042.07,143.208L3042.35,145.927L3042.59,148.647L3042.78,151.366L3042.93,154.085L3043.03,156.804L3043.09,159.52L3043.1,162.236L3043.07,164.952L3042.99,167.668L3042.86,170.381L3042.68,173.093L3042.46,175.806L3042.19,178.515L3041.88,181.224L3041.51,183.93L3041.1,186.633L3040.65,189.335L3040.14,192.034L3039.58,194.73L3038.98,197.422L3038.33,200.111L3035.47,204.894ZM3038.33,200.111L3037.62,202.938L3035.47,204.894L3038.33,200.111ZM2762.73,197.093L2781.08,191.594L2778.47,187.332L2786.22,194.444L2793.95,201.096L2801.65,207.284L2809.33,213.012L2816.99,218.279L2824.62,223.089L2832.22,227.439L2839.8,231.334L2847.35,234.776L2854.88,237.771L2862.38,240.319L2869.87,242.42L2877.33,244.08L2884.79,245.304L2892.24,246.091L2899.69,246.44L2907.14,246.353L2914.61,245.828L2922.09,244.864L2929.6,243.455L2937.14,241.603L2944.71,239.301L2952.32,236.544L2959.97,233.328L2967.66,229.647L2975.39,225.499L2983.16,220.881L2990.97,215.788L2998.82,210.219L3006.72,204.168L3014.65,197.634L3022.62,190.616L3035.46,204.901L3027.03,212.326L3018.6,219.274L3010.16,225.745L3001.71,231.738L2993.25,237.254L2984.77,242.289L2976.29,246.84L2967.79,250.907L2959.27,254.487L2950.74,257.579L2942.19,260.178L2933.64,262.282L2925.07,263.885L2916.5,264.991L2907.92,265.593L2899.35,265.694L2890.79,265.294L2882.24,264.393L2873.72,262.994L2865.21,261.102L2856.74,258.719L2848.28,255.852L2839.87,252.504L2831.48,248.679L2823.12,244.38L2814.79,239.613L2806.48,234.383L2798.21,228.689L2789.96,222.538L2781.73,215.93L2773.52,208.868L2765.34,201.355L2762.72,197.093L2762.73,197.093ZM2765.34,201.355L2763.46,199.577L2762.73,197.093L2765.34,201.355ZM2771.7,106.422L2775.9,125.212L2783.06,118.281L2782.44,120.691L2781.85,123.094L2781.28,125.491L2780.75,127.88L2780.24,130.264L2779.77,132.64L2779.33,135.01L2778.92,137.369L2778.55,139.722L2778.21,142.069L2777.91,144.405L2777.64,146.734L2777.41,149.053L2777.22,151.366L2777.07,153.668L2776.95,155.964L2776.88,158.25L2776.85,160.529L2776.85,162.798L2776.9,165.06L2777,167.312L2777.13,169.557L2777.32,171.792L2777.54,174.021L2777.81,176.243L2778.13,178.458L2778.5,180.663L2778.91,182.861L2779.38,185.053L2779.89,187.241L2780.46,189.422L2781.08,191.597L2762.72,197.096L2761.98,194.495L2761.3,191.886L2760.69,189.275L2760.14,186.659L2759.64,184.041L2759.2,181.419L2758.83,178.797L2758.51,176.176L2758.24,173.55L2758.03,170.925L2757.87,168.297L2757.76,165.672L2757.7,163.046L2757.69,160.418L2757.73,157.793L2757.81,155.167L2757.94,152.542L2758.12,149.92L2758.34,147.299L2758.6,144.677L2758.89,142.058L2759.24,139.44L2759.61,136.825L2760.03,134.21L2760.47,131.598L2760.96,128.986L2761.48,126.378L2762.03,123.77L2762.61,121.165L2763.22,118.56L2763.86,115.958L2764.53,113.356L2771.69,106.425L2771.7,106.422ZM2764.55,113.353L2766.03,107.703L2771.7,106.422L2764.54,113.353L2764.55,113.353Z" style="fill:rgb(254,254,254);fill-rule:nonzero;"/>
            </g>
            <g transform="matrix(0.0535574,0,0,0.0535574,-137.741,0.36413)">
                <rect x="2658.33" y="456.534" width="90.53" height="19.261" style="fill:white;fill-rule:nonzero;"/>
            </g>
            <g transform="matrix(0.0535574,0,0,0.0535574,-137.741,0.36413)">
                <rect x="3077.15" y="456.534" width="73.77" height="19.261" style="fill:white;fill-rule:nonzero;"/>
            </g>
        </g>
    </g>
</svg>
